<?xml version="1.0" encoding="utf-8"?>
<!-- Generator: Adobe Illustrator 19.0.0, SVG Export Plug-In . SVG Version: 6.00 Build 0)  -->
<svg version="1.1" id="Layer_1" xmlns="http://www.w3.org/2000/svg" xmlns:xlink="http://www.w3.org/1999/xlink" x="0px" y="0px"
	 width="1400px" height="980px" viewBox="0 0 1400 980" style="enable-background:new 0 0 1400 980;" xml:space="preserve">
<style type="text/css">
	.st0{fill:url(#XMLID_41_);}
	.st1{fill:url(#XMLID_42_);}
	.st2{fill:url(#XMLID_43_);}
	.st3{fill:url(#XMLID_44_);}
	.st4{fill:url(#XMLID_45_);}
	.st5{fill:url(#XMLID_46_);}
	.st6{fill:url(#XMLID_49_);}
	.st7{fill:url(#XMLID_70_);}
	.st8{fill:url(#XMLID_72_);}
	.st9{fill:url(#XMLID_78_);}
	.st10{fill:url(#XMLID_80_);}
	.st11{fill:url(#XMLID_81_);}
	.st12{fill:url(#XMLID_82_);}
	.st13{fill:url(#XMLID_83_);}
	.st14{fill:url(#XMLID_84_);}
	.st15{fill:url(#XMLID_85_);}
	.st16{fill:url(#XMLID_86_);}
	.st17{fill:url(#XMLID_87_);}
	.st18{fill:url(#XMLID_88_);}
	.st19{fill:url(#XMLID_89_);}
	.st20{fill:url(#XMLID_90_);}
	.st21{fill:url(#XMLID_91_);}
	.st22{fill:url(#XMLID_92_);}
	.st23{fill:url(#XMLID_93_);}
	.st24{fill:url(#XMLID_94_);}
	.st25{fill:url(#XMLID_95_);}
	.st26{opacity:0.1;fill:url(#XMLID_96_);}
	.st27{fill:url(#XMLID_97_);}
	.st28{opacity:0.3;fill:url(#XMLID_98_);}
	.st29{fill:url(#XMLID_99_);}
	.st30{fill:url(#XMLID_100_);}
	.st31{fill:url(#XMLID_101_);}
	.st32{fill:url(#XMLID_102_);}
	.st33{fill:url(#XMLID_103_);}
	.st34{fill:url(#XMLID_104_);}
	.st35{fill:url(#XMLID_105_);}
	.st36{fill:#0F1135;}
</style>
<g id="XMLID_68_">
	
		<linearGradient id="XMLID_41_" gradientUnits="userSpaceOnUse" x1="699" y1="-182.2477" x2="699" y2="528.8472" gradientTransform="matrix(-1 0 0 1 1399 0)">
		<stop  offset="0" style="stop-color:#000F4A"/>
		<stop  offset="0.1327" style="stop-color:#1D3F7E"/>
		<stop  offset="0.3367" style="stop-color:#915D8D"/>
		<stop  offset="0.5612" style="stop-color:#B75E8A"/>
		<stop  offset="0.8418" style="stop-color:#FB9885"/>
		<stop  offset="1" style="stop-color:#FEDD9A"/>
	</linearGradient>
	<rect id="XMLID_239_" y="0" class="st0" width="1400" height="980"/>
	<g id="XMLID_155_">
		<g id="XMLID_152_">
			
				<radialGradient id="XMLID_42_" cx="1213.9537" cy="518.1084" r="186.0462" gradientTransform="matrix(-1 0 0 1 1399 0)" gradientUnits="userSpaceOnUse">
				<stop  offset="0" style="stop-color:#FFFFA9"/>
				<stop  offset="1" style="stop-color:#FFFFA7;stop-opacity:0"/>
			</radialGradient>
			<circle id="XMLID_154_" class="st1" cx="185" cy="518.1" r="186"/>
		</g>
		<g id="XMLID_153_">
			
				<radialGradient id="XMLID_43_" cx="1213.9536" cy="518.1085" r="121.5294" gradientTransform="matrix(-1 0 0 1 1399 0)" gradientUnits="userSpaceOnUse">
				<stop  offset="0" style="stop-color:#FFFFA9"/>
				<stop  offset="1" style="stop-color:#FFFFA7;stop-opacity:0"/>
			</radialGradient>
			<circle id="XMLID_143_" class="st2" cx="185" cy="518.1" r="121.5"/>
		</g>
	</g>
	
		<linearGradient id="XMLID_44_" gradientUnits="userSpaceOnUse" x1="700" y1="1275.9188" x2="700" y2="423.8358" gradientTransform="matrix(-1 0 0 1 1399 0)">
		<stop  offset="0" style="stop-color:#000F4A"/>
		<stop  offset="0.1327" style="stop-color:#1D3F7E"/>
		<stop  offset="0.3367" style="stop-color:#915D8D"/>
		<stop  offset="0.5612" style="stop-color:#B75E8A"/>
		<stop  offset="0.8418" style="stop-color:#FB9885"/>
		<stop  offset="1" style="stop-color:#FEDD9A;stop-opacity:0.2"/>
	</linearGradient>
	<rect id="XMLID_208_" x="-1" y="525" class="st3" width="1400" height="455"/>
	
		<radialGradient id="XMLID_45_" cx="609.2347" cy="675.7063" r="184.1046" gradientTransform="matrix(-1 0 0 8.256638e-002 1399 593.3271)" gradientUnits="userSpaceOnUse">
		<stop  offset="0" style="stop-color:#FFFFA9"/>
		<stop  offset="1" style="stop-color:#FFFFA7;stop-opacity:0"/>
	</radialGradient>
	<ellipse id="XMLID_231_" class="st4" cx="789.8" cy="649.1" rx="229.2" ry="18.7"/>
	
		<linearGradient id="XMLID_46_" gradientUnits="userSpaceOnUse" x1="222.2296" y1="570.9999" x2="222.2296" y2="941.0029" gradientTransform="matrix(-1 0 0 1 1399 0)">
		<stop  offset="0" style="stop-color:#091337"/>
		<stop  offset="1" style="stop-color:#C66868"/>
	</linearGradient>
	<path id="XMLID_134_" class="st5" d="M955,974.2c0.7-14.5,2.7-28.3,8.6-41.6c10.3-23.2,24.5-45.7,33.4-69.6c3.6-9.7,3-20.9,5.3-31
		c2.1-9.4,6.3-14,11-22.1c5.1-8.7,9.8-16,16.7-23c-0.9-13.3,25.6-22.1,35.3-26.8c8.6-4.1,15.7-10.9,24.6-14
		c11.1-3.9,26.3-6.4,37.9-8.2c11.7-1.9,27.9-5.5,39.9-4.8c11.8,0.7,18.8,3.5,30.8,0.8c18.5-4.1,36.3-7.1,55.2-8.9
		c10.7-1,21.9-3.9,32.5-4.9c10.4-0.9,22,0.6,32.7-0.3c19.2-1.6,39.3-1.5,58.5,0.3c6.7,0.6,14,1.5,21.5,2.2V980H954.5
		C954.7,978.2,954.9,976.3,955,974.2z"/>
	
		<radialGradient id="XMLID_49_" cx="704.3063" cy="609.0085" r="179.3042" gradientTransform="matrix(-1 0 0 8.256638e-002 1399 484.3674)" gradientUnits="userSpaceOnUse">
		<stop  offset="0" style="stop-color:#FFFFA9"/>
		<stop  offset="1" style="stop-color:#FFFFA7;stop-opacity:0"/>
	</radialGradient>
	<ellipse id="XMLID_216_" class="st6" cx="694.7" cy="534.7" rx="223.3" ry="18.2"/>
	
		<radialGradient id="XMLID_70_" cx="725.8789" cy="616.8495" r="132.6764" gradientTransform="matrix(-1 0 0 8.256638e-002 1399 497.1766)" gradientUnits="userSpaceOnUse">
		<stop  offset="0" style="stop-color:#FFFFA9"/>
		<stop  offset="1" style="stop-color:#FFFFA7;stop-opacity:0"/>
	</radialGradient>
	<ellipse id="XMLID_210_" class="st7" cx="673.1" cy="548.1" rx="165.2" ry="13.5"/>
	
		<radialGradient id="XMLID_72_" cx="670.8789" cy="620.6116" r="132.6764" gradientTransform="matrix(-1 0 0 8.256638e-002 1399 503.3226)" gradientUnits="userSpaceOnUse">
		<stop  offset="0" style="stop-color:#FFFFA9"/>
		<stop  offset="1" style="stop-color:#FFFFA7;stop-opacity:0"/>
	</radialGradient>
	<ellipse id="XMLID_213_" class="st8" cx="728.1" cy="554.6" rx="165.2" ry="13.5"/>
	
		<radialGradient id="XMLID_78_" cx="645.9679" cy="628.4526" r="132.6764" gradientTransform="matrix(-1 0 0 8.256638e-002 1399 516.1319)" gradientUnits="userSpaceOnUse">
		<stop  offset="0" style="stop-color:#FFFFA9"/>
		<stop  offset="1" style="stop-color:#FFFFA7;stop-opacity:0"/>
	</radialGradient>
	<ellipse id="XMLID_218_" class="st9" cx="753" cy="568" rx="165.2" ry="13.5"/>
	
		<radialGradient id="XMLID_80_" cx="645.9679" cy="624.6904" r="132.6764" gradientTransform="matrix(-1 0 0 8.256638e-002 1399 509.9859)" gradientUnits="userSpaceOnUse">
		<stop  offset="0" style="stop-color:#FFFFA9"/>
		<stop  offset="1" style="stop-color:#FFFFA7;stop-opacity:0"/>
	</radialGradient>
	<ellipse id="XMLID_219_" class="st10" cx="753" cy="561.6" rx="165.2" ry="13.5"/>
	
		<radialGradient id="XMLID_81_" cx="480.9292" cy="631.4919" r="184.1046" gradientTransform="matrix(-1 0 0 8.256638e-002 1399 521.097)" gradientUnits="userSpaceOnUse">
		<stop  offset="0" style="stop-color:#FFFFA9"/>
		<stop  offset="1" style="stop-color:#FFFFA7;stop-opacity:0"/>
	</radialGradient>
	<ellipse id="XMLID_220_" class="st11" cx="918.1" cy="573.2" rx="229.2" ry="18.7"/>
	
		<radialGradient id="XMLID_82_" cx="553.2413" cy="627.1322" r="184.1046" gradientTransform="matrix(-1 0 0 8.256638e-002 1399 513.9749)" gradientUnits="userSpaceOnUse">
		<stop  offset="0" style="stop-color:#FFFFA9"/>
		<stop  offset="1" style="stop-color:#FFFFA7;stop-opacity:0"/>
	</radialGradient>
	<ellipse id="XMLID_221_" class="st12" cx="845.8" cy="565.8" rx="229.2" ry="18.7"/>
	
		<radialGradient id="XMLID_83_" cx="1027.9075" cy="633.037" r="184.1046" gradientTransform="matrix(-1 0 0 8.256638e-002 1399 523.6212)" gradientUnits="userSpaceOnUse">
		<stop  offset="0" style="stop-color:#FFFFA9"/>
		<stop  offset="1" style="stop-color:#FFFFA7;stop-opacity:0"/>
	</radialGradient>
	<ellipse id="XMLID_415_" class="st13" cx="371.1" cy="575.9" rx="229.2" ry="18.7"/>
	
		<radialGradient id="XMLID_84_" cx="1080.0087" cy="619.7629" r="184.1046" gradientTransform="matrix(-1 0 0 8.256638e-002 1399 501.9361)" gradientUnits="userSpaceOnUse">
		<stop  offset="0" style="stop-color:#FFFFA9"/>
		<stop  offset="1" style="stop-color:#FFFFA7;stop-opacity:0"/>
	</radialGradient>
	<ellipse id="XMLID_425_" class="st14" cx="319" cy="553.1" rx="229.2" ry="18.7"/>
	
		<radialGradient id="XMLID_85_" cx="628.4828" cy="640.4825" r="184.1046" gradientTransform="matrix(-1 0 0 8.256638e-002 1399 535.7844)" gradientUnits="userSpaceOnUse">
		<stop  offset="0" style="stop-color:#FFFFA9"/>
		<stop  offset="1" style="stop-color:#FFFFA7;stop-opacity:0"/>
	</radialGradient>
	<ellipse id="XMLID_224_" class="st15" cx="770.5" cy="588.7" rx="229.2" ry="18.7"/>
	
		<radialGradient id="XMLID_86_" cx="560.6695" cy="654.7552" r="184.1046" gradientTransform="matrix(-1 0 0 8.256638e-002 1399 559.1008)" gradientUnits="userSpaceOnUse">
		<stop  offset="0" style="stop-color:#FFFFA9"/>
		<stop  offset="1" style="stop-color:#FFFFA7;stop-opacity:0"/>
	</radialGradient>
	<ellipse id="XMLID_229_" class="st16" cx="838.3" cy="613.2" rx="229.2" ry="18.7"/>
	
		<radialGradient id="XMLID_87_" cx="560.6695" cy="665.6356" r="184.1046" gradientTransform="matrix(-1 0 0 8.256638e-002 1399 576.8752)" gradientUnits="userSpaceOnUse">
		<stop  offset="0" style="stop-color:#FFFFA9"/>
		<stop  offset="1" style="stop-color:#FFFFA7;stop-opacity:0"/>
	</radialGradient>
	<ellipse id="XMLID_230_" class="st17" cx="838.3" cy="631.8" rx="229.2" ry="18.7"/>
	
		<radialGradient id="XMLID_88_" cx="297.2347" cy="665.6356" r="184.1046" gradientTransform="matrix(-1 0 0 8.256638e-002 1399 576.8752)" gradientUnits="userSpaceOnUse">
		<stop  offset="0" style="stop-color:#FFFFA9"/>
		<stop  offset="1" style="stop-color:#FFFFA7;stop-opacity:0"/>
	</radialGradient>
	<ellipse id="XMLID_232_" class="st18" cx="1101.8" cy="631.8" rx="229.2" ry="18.7"/>
	
		<radialGradient id="XMLID_89_" cx="319.1907" cy="627.1322" r="184.1046" gradientTransform="matrix(-1 0 0 8.256638e-002 1399 513.9749)" gradientUnits="userSpaceOnUse">
		<stop  offset="0" style="stop-color:#FFFFA9"/>
		<stop  offset="1" style="stop-color:#FFFFA7;stop-opacity:0"/>
	</radialGradient>
	<ellipse id="XMLID_235_" class="st19" cx="1079.8" cy="565.8" rx="229.2" ry="18.7"/>
	
		<radialGradient id="XMLID_90_" cx="297.2347" cy="656.6534" r="184.1046" gradientTransform="matrix(-1 0 0 8.256638e-002 1399 562.2016)" gradientUnits="userSpaceOnUse">
		<stop  offset="0" style="stop-color:#FFFFA9"/>
		<stop  offset="1" style="stop-color:#FFFFA7;stop-opacity:0"/>
	</radialGradient>
	<ellipse id="XMLID_234_" class="st20" cx="1101.8" cy="616.4" rx="229.2" ry="18.7"/>
	
		<radialGradient id="XMLID_91_" cx="748.9992" cy="614.0431" r="96.7844" gradientTransform="matrix(-1 0 0 8.256638e-002 1399 492.5921)" gradientUnits="userSpaceOnUse">
		<stop  offset="0" style="stop-color:#FFFFA9"/>
		<stop  offset="1" style="stop-color:#FFFFA7;stop-opacity:0"/>
	</radialGradient>
	<ellipse id="XMLID_217_" class="st21" cx="650" cy="543.3" rx="120.5" ry="9.8"/>
	
		<radialGradient id="XMLID_92_" cx="1092.2361" cy="604.8749" r="96.7823" gradientTransform="matrix(-2.2101 0 0 8.256638e-002 2720.5266 477.6146)" gradientUnits="userSpaceOnUse">
		<stop  offset="0" style="stop-color:#FFFFA9"/>
		<stop  offset="1" style="stop-color:#FFFFA7;stop-opacity:0"/>
	</radialGradient>
	<ellipse id="XMLID_581_" class="st22" cx="306.6" cy="527.6" rx="266.3" ry="9.8"/>
	
		<radialGradient id="XMLID_93_" cx="1067.0493" cy="609.3882" r="96.7823" gradientTransform="matrix(-2.2101 0 0 8.256638e-002 2720.5266 484.9877)" gradientUnits="userSpaceOnUse">
		<stop  offset="0" style="stop-color:#FFFFA9"/>
		<stop  offset="1" style="stop-color:#FFFFA7;stop-opacity:0"/>
	</radialGradient>
	<ellipse id="XMLID_584_" class="st23" cx="362.2" cy="535.3" rx="266.3" ry="9.8"/>
	
		<radialGradient id="XMLID_94_" cx="1051.5541" cy="624.6904" r="96.7823" gradientTransform="matrix(-2.2101 0 0 8.256638e-002 2720.5266 509.9859)" gradientUnits="userSpaceOnUse">
		<stop  offset="0" style="stop-color:#FFFFA9"/>
		<stop  offset="1" style="stop-color:#FFFFA7;stop-opacity:0"/>
	</radialGradient>
	<ellipse id="XMLID_608_" class="st24" cx="396.5" cy="561.6" rx="266.3" ry="9.8"/>
	
		<radialGradient id="XMLID_95_" cx="1104.5323" cy="635.4282" r="96.7823" gradientTransform="matrix(-2.2101 0 0 8.256638e-002 2720.5266 527.5275)" gradientUnits="userSpaceOnUse">
		<stop  offset="0" style="stop-color:#FFFFA9"/>
		<stop  offset="1" style="stop-color:#FFFFA7;stop-opacity:0"/>
	</radialGradient>
	<ellipse id="XMLID_611_" class="st25" cx="279.4" cy="580" rx="266.3" ry="9.8"/>
	
		<linearGradient id="XMLID_96_" gradientUnits="userSpaceOnUse" x1="768.2971" y1="496.5797" x2="768.2971" y2="621.0736" gradientTransform="matrix(-1 0 0 1 1399 0)">
		<stop  offset="0" style="stop-color:#DD6E68"/>
		<stop  offset="1" style="stop-color:#091337"/>
	</linearGradient>
	<path id="XMLID_48_" class="st26" d="M772.4,523c-9.9-2.6-20.8-5.2-30-9.7c-6-2.9-11.3-7.5-17.4-10c-12.9-5.2-25,1-37.9,0.3
		c-17.1-0.9-30.1-15.2-47.3-5.8c-3.2,1.7-6.8,3.4-10.2,4.6c-5.4,2-10.7,0.6-15.9,2.3c-3.9,1.3-5.8,4.3-10,4.9
		c-5,0.7-10.2-2.2-15.6-1.4c-7.7,1.1-14.7,4.6-22.6,5.2c-9.1,0.7-18,1.4-27.1,2.1c-15.9,1.3-33.5,8.1-49.4,9.3c25,1,50,0.8,72.7,2
		c30.7,1.6,60.6,3.2,91.3,1.3c30.3-1.8,61.1-2.7,91.5-2.7C752.5,525.7,764.9,527.4,772.4,523z"/>
	
		<linearGradient id="XMLID_97_" gradientUnits="userSpaceOnUse" x1="168.3333" y1="1275.9216" x2="168.3333" y2="423.8341" gradientTransform="matrix(-1 0 0 1 1399 0)">
		<stop  offset="0" style="stop-color:#091337"/>
		<stop  offset="1" style="stop-color:#C66868"/>
	</linearGradient>
	<path id="XMLID_137_" class="st27" d="M1123.2,607c19.4-5.4,42.6-10.3,62.8-9.1c27.1,1.6,55.2,10.1,81.4,5.1
		c9.6-1.9,16.9,0.3,26.6-1c8.2-1.1,14.8-7.2,22.2-8.8c15.4-3.3,35.3,0.1,51.6-1.4c9.3-0.9,20.7-2,31.2-3.1v55.5
		c-1-0.1-2.1-0.1-3.1-0.2c-17.2-1.2-34.8-6.7-52-8.9c-18.7-2.4-38.1-1-56.9-2c-19.7-1-39.3-3.4-59-4.6c-30-1.9-59.8-1.5-89.8-4.2
		c-14.9-1.4-30.7-2.7-45.5-4.9c-6.8-1-23.3-2.4-30.3-2.9C1079,614.9,1107,611.5,1123.2,607z"/>
	
		<linearGradient id="XMLID_98_" gradientUnits="userSpaceOnUse" x1="457.2617" y1="494.5797" x2="457.2617" y2="619.0736" gradientTransform="matrix(-1 0 0 1 1399 0)">
		<stop  offset="0" style="stop-color:#DD6E68"/>
		<stop  offset="1" style="stop-color:#091337"/>
	</linearGradient>
	<path id="XMLID_207_" class="st28" d="M1082.7,521c-9.9-2.6-20.8-5.2-30-9.7c-6-2.9-11.3-7.5-17.4-10c-12.9-5.2-25,1-37.9,0.3
		c-17.1-0.9-30.1-15.2-47.3-5.8c-3.2,1.7-6.8,3.4-10.2,4.6c-5.4,2-10.7,0.6-15.9,2.3c-3.9,1.3-5.8,4.3-10,4.9
		c-5,0.7-10.2-2.2-15.6-1.4c-7.7,1.1-14.7,4.6-22.6,5.2c-9.1,0.7-18,1.4-27.1,2.1c-15.9,1.3-31.9,1.5-47.8,2.8
		c20.9,10.7,48.4,7.3,71.1,8.5c30.7,1.6,60.6,3.2,91.3,1.3c30.3-1.8,61.1-2.7,91.5-2.7C1062.7,523.7,1075.1,525.4,1082.7,521z"/>
	
		<linearGradient id="XMLID_99_" gradientUnits="userSpaceOnUse" x1="432.3333" y1="523.4995" x2="432.3333" y2="759.4999" gradientTransform="matrix(-1 0 0 1 1399 0)">
		<stop  offset="0" style="stop-color:#D57770"/>
		<stop  offset="1" style="stop-color:#091337"/>
	</linearGradient>
	<path id="XMLID_204_" class="st29" d="M679,518.9c15.5-1.6,29.7-5.9,45.3-3.2c29.4,5.1,53.2-4.7,81.6-10.7
		c8.3-1.7,14.1-2.6,23.3-0.9c9,1.6,16.9,5,26.3,3.8c12.3-1.6,15.6-3.4,26.8,1.9c8.1,3.8,20,8.8,29,9.4c7,0.5,14-1,21.5-1.2
		c10.9-0.4,20.1-6.9,29.7-8c7.2-0.8,11.9,4,18.5,4.9c3.9,0.5,8.7-1.3,13-0.9c5.2,0.6,9.9,3.7,14.9,4.8c17.2,3.8,32.9-4.9,50.2-4.3
		c12.3,0.4,26.4-6.3,38.2-0.5c14.3,7.1,15.8,6.7,32.3,2.9c8-1.8,22-7.9,23.7,4c9.8,2.3,44.3-10,47,6c9.8-1.8,17.9,9.3,24.6,13.4
		c9.6,6,21.9-0.2,33,0.7c21.6,1.9,47,1.5,68.2,6c-6.1,1.7-7.7,7.6-14,9c-5.6,1.3-13.4-0.8-12.2,7.8c-18.4,6.4-40.7-3-58.9-4.8
		c-23.6-2.4-47.3-1.8-71.2-3c-35.6-1.7-70.9,0.3-106-7.1c-32.4-6.8-67.8-3-99.4-11.7c-1.5-0.4-3.2-3-3.4-3c-4.8-1.2-10,0.8-14.1-0.2
		c-4.3-1-8.3,1-12.9,0.6c-34-3.2-60.2-4-87.5-3.2c-19.1,0.6-127.8-1.1-161.8,1.4c-15.4,1.1-61.7-4.2-77.4-6
		C611.1,525.5,660.6,520.8,679,518.9z"/>
	
		<linearGradient id="XMLID_100_" gradientUnits="userSpaceOnUse" x1="103.8247" y1="1343.9193" x2="103.8247" y2="491.8355" gradientTransform="matrix(-1 0 0 1 1399 0)">
		<stop  offset="0" style="stop-color:#091337"/>
		<stop  offset="1" style="stop-color:#C66868"/>
	</linearGradient>
	<path id="XMLID_138_" class="st30" d="M1241.7,556c9.7-1.2,19.6,1,29.1,1c9.8,0,17.8-3.9,27.2-6c15.1-3.4,25-13.1,41.9-13
		c20.5,0,39.4-4.8,59.1-7.9V593c-12.8-1.7-25.3-3.3-38.5-4c-19.3-0.9-38.8-4.4-57.9-6.9c-21.1-2.8-42.4-0.7-63.6-3.3
		c-16-2-32.3-5.3-47.7-8.7C1205.7,563.7,1225.8,557.9,1241.7,556z"/>
	
		<linearGradient id="XMLID_101_" gradientUnits="userSpaceOnUse" x1="390.8488" y1="515" x2="390.8488" y2="737.2252" gradientTransform="matrix(-1 0 0 1 1399 0)">
		<stop  offset="0" style="stop-color:#C66868"/>
		<stop  offset="1" style="stop-color:#091337"/>
	</linearGradient>
	<path id="XMLID_205_" class="st31" d="M1192,560c-14.3-11-31.5-13.9-48-16.5c-10.7-1.7-18.4-8.6-28.5-12
		c-12.4-4.2-23.8-5.8-36.1-10.9c-12.9-5.3-24-1.1-37.5,2.9c-8.7,2.6-15.3,5.8-24.3,4.5c-6.4-0.9-12.2-4.7-18.6-5.8
		c-6.8-1.2-12,1.1-18.5,2c-9.1,1.3-18.6,0.5-27.5,2.4c-9.4,2.1-16.2,5.2-26.5,4.3c-8.2-0.7-15.3-2.5-23.4-1.3
		c-14.9,2.2-30.1,4.6-45.3,5.3c-12.5,0.6-21.2,2.7-33.4,7c17.3,8.1,41.3-2.4,58.6,6.2c-0.3,0.6-1.3,0.9-1.6,1.6
		c18.2,6.7,42.7,4.7,61.7,6.1c31.6,2.2,63.7,4.9,95.4,6.2c41,1.7,83.9,5.5,125.6,2.7c-2.2-1.3-5.2-3.8-8-4.8
		C1162.5,560.5,1185.1,561.5,1192,560z"/>
	<g id="XMLID_1_">
		<g id="XMLID_418_">
			
				<radialGradient id="XMLID_102_" cx="1164.0583" cy="501.3908" r="84.0497" gradientTransform="matrix(-1 0 0 1 1399 0)" gradientUnits="userSpaceOnUse">
				<stop  offset="0" style="stop-color:#FFFFA9"/>
				<stop  offset="1" style="stop-color:#FFFFA7;stop-opacity:0"/>
			</radialGradient>
			<circle id="XMLID_419_" class="st32" cx="234.9" cy="501.4" r="84"/>
		</g>
		<g id="XMLID_383_">
			
				<radialGradient id="XMLID_103_" cx="1164.0583" cy="501.3908" r="54.9031" gradientTransform="matrix(-1 0 0 1 1399 0)" gradientUnits="userSpaceOnUse">
				<stop  offset="0" style="stop-color:#FFFFA9"/>
				<stop  offset="1" style="stop-color:#FFFFA7;stop-opacity:0"/>
			</radialGradient>
			<circle id="XMLID_386_" class="st33" cx="234.9" cy="501.4" r="54.9"/>
		</g>
	</g>
	<g id="XMLID_3_">
		
			<linearGradient id="XMLID_104_" gradientUnits="userSpaceOnUse" x1="962.2625" y1="838.4748" x2="824.2626" y2="338.4747" gradientTransform="matrix(-1 0 0 1 1399 0)">
			<stop  offset="0" style="stop-color:#091337"/>
			<stop  offset="1" style="stop-color:#C66868"/>
		</linearGradient>
		<path id="XMLID_206_" class="st34" d="M15.8,334c7.9,10.5,19.3,15.3,30.3,22.4c10.4,6.7,18.6,15.8,27.9,23.1
			c9,7.1,17.5,9.5,27,14.8c25.9,14.3,37.3,49,57.9,68.6c8.3,7.9,18.6,13.6,26.5,21.5c8,7.9,14.5,16.7,24.5,21.9
			c9.2,4.7,15.3,4.6,21,12.8c3.6,5.2,8.2,9.9,12,15.2c3.4,4.7,5.3,10,9.4,14.8c3.7,4.3,8.7,8.5,11.3,13.7c2.9,5.7,2.6,14.1,6.4,19.4
			c3.4,4.8,11.4,10,15.9,14c15.3,13.1,34.2,24.2,50.8,35.7c9.7,6.7,18.6,14.3,28.5,20.7c6.1,4,12.7,7.1,19,10.7
			c6.4,3.7,16,14,23.6,12.9c9.2-1.4,21.1,1.9,30.2,3.2c15,2.3,29.9,5.9,45,7.8c16.9,2.2,34.1,4.6,50.8,7
			c16.8,2.4,28.9,13.4,44.7,19.5c22.1,8.5,48.2,1.8,69.8,10.5c8.5,3.4,16,10.9,24,15.4c11.4,6.4,23.7,9,36,13.1
			c15.8,5.3,32.6,8.1,47.7,15.2c17.7,8.4,30.5,27.4,46.6,39.1c26.1,18.9,63.7,17.9,92.6,32.2c18.4,9.1,37.3,9.1,56.1,17
			c8.9,3.8,18.2,6.6,27.5,9.3V980H-1V318.2C4.9,323,10.8,327.4,15.8,334z"/>
		
			<linearGradient id="XMLID_105_" gradientUnits="userSpaceOnUse" x1="487.3534" y1="932.6934" x2="484.299" y2="679.1922" gradientTransform="matrix(-1 0 0 1 1399 0)">
			<stop  offset="0" style="stop-color:#091337"/>
			<stop  offset="1" style="stop-color:#C66868"/>
		</linearGradient>
		<path id="XMLID_16_" class="st35" d="M771.8,843.8c14.8-3.8,60-12.8,74.4-8.9c67.5,18.1,141.4,14.2,210,32.3
			c51.9,13.7,86.9,19.2,140.6,5.5c32.7-8.3,53,4,85.9,9.8c30.2,5.3,61.1,4.6,91.5,6.2c8.1,0.4,16.3,0.5,24.7,0.5V980H423.2
			C433.7,960.3,741.2,851.7,771.8,843.8z"/>
	</g>
	<g id="XMLID_4_">
		<path id="XMLID_8_" class="st36" d="M667.6,640.7c-3.8,0-7.6,0.3-11.4,0.7l-4.5-19.8h-10.4l-7.7-2.7l-2.7-9.9
			c5.9-0.3,11.9-2.1,16.9-4.7c8.4-4.4,15.2-11.7,20-19.9c2.2-2.4,4.1-5,5.8-7.7c6.5-10.5,10.6-28.6,2.6-39.2
			c0.2-0.1,0.4-0.1,0.6-0.2c-0.2-0.9,0.5-1.8,1.4-2.2c0.9-0.3,1.9-0.2,2.8,0c3.1,0.6,6.1,1.6,8.9,2.8c0.6,0.3,1.3,0.6,1.6,1.2
			c0.3,0.5,0.2,1.1,0.4,1.7c0.4,1.4,2.1,2.2,3.4,1.8c1.4-0.4,2.3-1.9,2.2-3.3c-0.1-1-0.6-2-1.2-2.7c-1.7-1.9-4.2-2.8-6.6-3.5
			c-5.6-1.8-11.2-3.4-16.8-5c2.9-0.5,5.7-1,8.6-1.4c1.3-0.2,2.7-0.5,3.8-1.1c2.1-1.2,3.1-3.9,2.4-6.2c-0.7-2.3-3.1-3.9-5.4-3.8
			c-10.8,0.6-19.9,6.5-30.5,8.5c0-1.1,0.3-3.4-0.2-4.4c-0.5-1-1.4-1.9-2.5-1.9c-0.8,0-1.5,0.3-2.2,0.7c-1.8,1-3.7,1.9-5.5,2.9
			c0.1,1.2,0.3,2.5,0.4,3.7c-4.5,1.3-8.9,2.6-13.4,4.1c-0.2-0.5-0.5-1-1.1-1.1c0-3.3-3.8-4.3-5.1-6.8c-0.7-1.3-0.9-2.9-1.8-4.1
			c-0.5-0.7-1.1-0.9-1.8-1.3c-0.9-0.6-1.6-1.4-2.6-1.7c-2.4-0.8-4.8-1.7-7.3-2.4c-2.9-0.7-5.4-1.7-8-3.2c-2.1-1.2-4.6-1.7-6.4-3.4
			c-2.1-2-4-4.1-6-6.2c-1.9-2.1-3.4-4.5-5-6.9c-1-1.5-1.7-3.3-2.8-4.7c-0.9-1.2-1.7-2.3-2.4-3.7c-3.1-6.1-7.5-11.5-11.2-17.2
			c-1.3-2-2.2-4.1-3.4-6.2c-1-1.9-2.3-3.5-3.4-5.4c-0.7-1.3-1.5-2.5-2.2-3.8c-0.6-1.1-1.4-2-2.1-3.1c-1.1-1.8-2.3-3.6-3.8-5.1
			c-1.2-1.2-2.6-2.4-3.7-3.7c-1.5-1.7-3.2-3.2-4.1-5.2c-0.8-1.7-1.8-3.4-2.3-5.3c-0.7-2.4-2.3-4.3-3.2-6.7c-1.2-3.2-2.6-6.4-4-9.5
			c-1.2-2.8-2.3-5.5-3.2-8.4c-0.2-0.5-0.4-0.7-0.5-1.3c-0.1-0.5,0.1-1.1,0-1.6c-0.1-0.5-0.3-0.7-0.5-1.2c-0.2-0.7-0.1-1.6-0.4-2.4
			c-0.4-1.2-0.4-2.1-0.5-3.4c-0.1-1.1-0.5-2-0.5-3.2c0-2.4-0.5-4.6-0.5-7c0-2.7-0.5-5.2-0.5-7.9c0-2.3,0.2-4.7-0.4-6.8
			c-0.2-0.8-0.1-1.6-0.1-2.4c-0.3-0.3-0.6-0.7-0.8-1c0,0,0,0,0,0c-0.3-3.9-1.3-10.6-3.1-14.2c1.1-2.7,2.6-5.3,4.3-7.6
			c1.7-2.2,6.8-8,9.3-8.5c2.8,0.7,6.4,4,9,5.5c2.9,1.6,7.4,5.1,10.7,5.3c2.2-1.9,6-4.2,9-4.9l3.7-8c-1.1-3.2-4.3-19.6-4.6-23.8
			c-0.9-0.3-2.9-0.1-4,0c-2.1,3.6-3.9,11.4-9.6,7.7c-0.6-1.7-0.5-2.7-0.3-4.6c2.1-2.5,5.4-2.2,4-6.3c-1.3-3.7-6.2-5.6-6.1-9.5
			c0-2.1,1.9-3.6,1.9-5.9c0-1.7-1.4-3.8-1.6-5.6c-0.2-2.1,0.5-2.6,1-4.2c0.3-0.8,1.4-2.7,1.5-2.8c5.2-0.5,24.8,5.9,23.4-5.8
			c-5.9-2.3-11.1-5.9-17.6-7.8c3-5.1,2.8-5.6-1.9-9.3c-2.4-1.9-4.2-4.1-6.7-5.8c-2.5-1.8-5.5-3.4-7.6-5.6c-2.3-2.5-3.2-3.9-7-3.7
			c-3.3,0.1-4.8,2-4.3,5.6c0.1,0.6,0.1,1.3-0.1,1.9c-5.6-1.8-11.1-3.8-17.3-4.1c-10.1-0.5-20.3,0.3-29.5,4.6
			c-9.5,4.4-18.2,12.1-22.6,21.7c-2.7,5.9-5.7,14.8-3.7,21.3c-1.5,0.9-2.1,2.2-3.5,3.4c2,3.6,4.3,13.9,9.9,11.8
			c1.1,2.6,3.2,6.2,5,8.6c1.6,2,3.9,2.3,5.8,3.8c4.2,3.2,3.3,7.6,4.7,12.5c-0.4,0.2-0.9,0.4-1.3,0.6c-0.7,0.5-1,1.2-1.6,1.7
			c-1,1-2.5,1.7-3.7,2.4c-1.7,1-3.2,2-4.8,3.2c-2.2,1.7-4.2,3.6-6.6,5c-1.3,0.8-2.6,1.4-3.9,2.2c-1.5,1-2.2,1.8-3.4,3.1
			c-1.3,1.3-2.9,2.2-4.3,3.2c-1.4,1-2.4,2.5-3.7,3.7c-1,0.9-2.2,1.6-3.3,2.4c-1.7,1.2-3.2,2.5-4.9,3.7c-5.6,3.9-9.9,9.7-14.4,14.8
			c-1.1,1.2-2.2,2.5-3,3.9c-1.1,1.8-2.8,2.8-4.2,4.3c-1.3,1.4-2.5,3.5-3.4,5.2c-1.1,2.2-2.5,4-4.2,5.8c-1.2,1.3-1.9,2.9-3,4.3
			c-1.2,1.7-1.9,3.7-2.8,5.6c-0.5,1-1,1.5-1.3,2.7c-0.3,1.4-0.5,2.5-1,3.8c-0.7,1.8-1.5,3.4-1.9,5.3c-1.9,7.8-2.7,15.9-5.3,23.5
			c-0.7,1.9-1.5,3.7-2.3,5.6c-0.4,1-0.4,2.2-0.9,3.2c-0.4,0.9-0.9,1.6-1.4,2.3c-0.9,1.6-1.6,3.3-2.3,5c-1,2.7-2.7,5-3.7,7.7
			c-0.5,1.4-0.7,2.8-1.3,4.2c-0.8,1.7-1.7,3.2-2.6,4.8c-0.5,0.8-0.7,1.7-1,2.5c-0.6,1.7-1.6,3.3-2.3,5c-0.5,1.2-0.9,2.5-1.3,3.7
			c-0.7,2.1-0.8,3.9-1,6.1c-0.3,2.8-0.8,5.4-0.8,8.3c0,1.4-1,3.5-0.1,4.8c0,0.1,0.1,0.1,0.1,0.1c-0.4,0.9-0.9,1.8-1.4,2.7
			c-1.2,2.2-1.7,4.5-2.7,6.7c-0.4,0.9-1,1.7-1.3,2.7c-0.3,1.2-0.6,2.4-1.1,3.5c-0.6,1.5-1.3,2.8-1.7,4.3c-0.2,0.7-0.4,1.4-0.5,2.2
			c0,0.6,0.1,1.2-0.1,1.7c-0.1,0-0.7,1-0.8,1c-0.2,3.7-0.3,7.6,0.1,11.3c0.3,3.1,1.1,6.4,1.7,9.5c0.5,2.4,1.5,4.5,2.2,6.8
			c0.9,2.6,1.6,5.3,2.5,7.9c0.7,2,1.3,4.1,1.6,6.2c0.4,2.5,0.6,4.4-0.4,6.9c-1.7,4.1-3.9,7.8-4.4,12.3c-0.2,1.8-0.2,3.6,0.4,5.3
			c0.4,1.2,0.6,2.1,0.4,3.4c-0.5,2.7-0.6,5.5-1.4,8.2c-1,3.6-0.8,7.1-0.8,10.8c0,3.6,1,6.6,1.9,10c0.4,1.5,0.2,3,0.5,4.5
			c0,0.1,0.2,1.5,0.4,1.8c0.2,0.2,0.8,0.4,0.9,0.5c1,0.7,1.4,1.7,2.1,2.6c0.6,0.9,1.5,1.3,2.2,2c1.6,1.5,2.7,3.1,4.6,4.3
			c1.4,0.9,2.9,1.6,4.4,2.3c-0.1,0.7-0.2,1.3-0.3,2c-12.8-5-26.8-7.7-41.4-7.7c-67.1,0-123.6,57.1-126.3,127.5
			c-2.7,70.4,49.6,127.5,116.6,127.5c27.2,0,52.7-9.4,73.5-25.3c2.4,0.1,4.8,0.2,7.1,0.2c8.2,0.3,16.7,0.5,24.4-2.6
			c1-0.4,2.1-1,2.4-2c0.2-0.9-0.2-1.8-0.6-2.5c-3.3-5.2-9.4-7.3-15.2-9.8c15.3-16.9,26.4-38,31.5-61.3l25.7-4.4
			c4.5,2.4,9.7,3.8,15.1,3.8c17.7,0,32-14.3,32-32c0-6.4-1.9-12.4-5.2-17.4l28.9-37.1c2.9-0.5,5.8-1.1,8.8-1.7
			c2.7-0.6,5.6-1.3,8-2.6c0.7-0.4,1.6-0.7,2.2-1.2c0.9-0.7,0.7-1.5,0.7-2.6c0-2.1-0.2-3.9-0.8-5.8c-0.5-1.9-2.4-4-3.7-5.4l54.9-70.4
			l1.4,6.4l-1.4,4.5l5.7,24c-33.5,16.6-57.5,52.1-59.1,93.4c-2.1,57,39.6,103.3,93.3,103.3c53.7,0,98.9-46.2,101-103.3
			C763,686.9,721.3,640.7,667.6,640.7z M375.2,673.5c-2.5,7.6-5.5,15.1-7.3,22.9c-1.2,5.2-1.8,10.6-2.2,16l-15.1,14.3
			c-3.1,1.3-5.8,3.8-7.9,6.5c-2.7,3.5-4.7,7.5-7.4,11c-0.4,0.6-1,1.1-1.7,1.3c-0.9,0.2-1.9-0.4-2.6-1c-2-1.6-4-3.4-6.4-4.4
			c-2.4-1-5.4-1.2-7.4,0.4c-2.6,2-2.8,5.8-2.3,9c0.5,3.2,1.5,6.5,0.6,9.6c-0.2,0.1-0.4,0.1-0.7,0.2l-11.5,1.8l-0.2,1.9
			c-2.7,1.1-5.3,2.4-7.7,4c-6,4.1-10.7,10.8-10.3,18c0.2,5.3,3.1,10.3,3.1,15.7c0,3.1-1,6.3-0.2,9.4c1,3.7,4.3,6.1,8.1,7l-0.3,2.1
			l65.9-11.2c-0.2,5.1-0.4,10.3-0.6,15.4c-0.4,12.7-0.7,25.5-0.8,38.3c0,1.7,0,3.6,1.2,4.9c1.1,1.2,2.9,1.5,4.5,1.6
			c0.7,0.1,1.3,0.1,2,0.2c-11.6,4.6-24.1,7.2-37,7.2c-56.5,0-100.4-48.1-98.2-107.3s49.8-107.3,106.3-107.3c13.4,0,26,2.7,37.6,7.6
			C376.3,670.2,375.8,671.8,375.2,673.5z M309.5,808.4c1.2-3.6,6.7-4,10.5-4.6c3.8-0.5,7.7-0.1,11.4-1.2
			c7.1-2.1,11.9-10.1,10.2-17.4c4-4,8-8,12-11.9l9.7-0.4c-0.4,9.7-0.8,19.4-1.2,29.1c0,1-0.1,2-0.1,2.9l-52.3,8.9
			C310.6,812.2,310.8,809.9,309.5,808.4z M357.7,761c-0.3-1.3-0.4-2.6-0.4-4l0.6,1.7l3.3-3.6l2.7-0.4c-0.1,2.1-0.2,4.1-0.2,6.2
			L357.7,761z M604.3,579.7c1.2-0.9,1.8-2.2,2.9-3.2c0.1-0.1,0.3-0.3,0.4-0.4l1.4,5.5l-10.1,3.3
			C600.7,583.1,602.3,581.3,604.3,579.7z M528.9,471.8c1.7,2.2,4.1,4.5,6.4,6.1c0.9,0.6,1.5,1.2,2.2,2c0.5,0.6,1,0.7,1.6,1.2
			c0.6,0.5,1.1,1.4,1.7,2c0.7,0.7,1.4,1.2,2.1,1.9c2,1.9,4,4.2,6.4,5.7c1.2,0.7,2.1,1.5,3,2.5c0.8,0.9,1.9,1.5,2.6,2.4
			c1.4,1.6,2.7,3.4,4.6,4.5c0.7,0.4,1,0.6,1.5,1.2c0.4,0.5,0.8,1,1.3,1.4c0.9,0.7,1.8,1.5,2.7,2.1c1.1,0.8,2.2,1.4,3.2,2.4
			c0.5,0.5,1.1,1.1,1.7,1.6c-0.5-0.2-1-0.3-1.5-0.5c-3-1.2-6.5-1.8-9.7-2.5c-2.7-0.6-5.4-1.1-8.1-1.6c-2.4-0.4-4.8-0.8-7.2-1.2
			c-1.9-0.4-3.9-0.7-5.9-0.8c-2.1,0-4.1-0.8-6.1-0.9c-2-0.1-4,0.2-6-0.2c-4.2-0.8-8.5-0.7-12.8-0.7c-2.9,0-5.7-0.4-8.4-0.9
			c-0.8-0.1-1.2-0.5-2.1-0.5c-0.8,0-1.3-0.2-2-0.4c-0.5-0.1-1,0-1.6-0.1c-0.6-0.1-1-0.4-1.6-0.4c-0.6,0-1-0.2-1.5-0.3
			c-0.6-0.1-1.1,0-1.7-0.1c-0.2,0-0.3-0.1-0.5-0.1c-0.2-0.3-0.4-0.7-0.4-1c-0.3-1.8,1.3-3.5,2.4-4.7c0.8-0.9,1.3-1.8,1.6-2.9
			c0.3-1.3,0.9-2.4,1.2-3.7c0.3-1,0.9-1.9,1.2-2.9c0.5-1.4,0.8-2.8,1.4-4.1c0.6-1.5,1.4-2.8,2.1-4.2c0.6-1.2,0.6-2.4,1.5-3.5
			c1.6-2.2,2.9-4.4,4.2-6.8c0.9-1.6,1.9-3.2,3.1-4.7c0.7-0.9,1.3-1.9,1.9-2.8c0.5-0.7,1.7-2,1.7-3c0.5,1.4,1.8,2.8,2.7,4
			c0.7,0.9,1,1.8,1.6,2.8c0.4,0.8,1.1,1.4,1.6,2.2c1.2,1.7,2.4,3.2,3.8,4.8c0.8,0.9,1.3,2.1,2.1,3
			C527.5,470.6,528.3,471,528.9,471.8z M455,649.5c1.2,8,2.7,18.4,4.4,29.9c-1.2,2.7-2.3,5.6-2.5,8.4l-15.5-18.5L455,649.5z
			 M405.6,725.3c1.1-6.8,1.3-13.9,2.2-20.8l6.7-7.3c9.9,12.3,17,27.1,20.5,43.5l-33.2,5.1C403.2,739,404.5,732.2,405.6,725.3z
			 M407.5,841c-0.1-0.2-0.2-0.3-0.4-0.5c-2.6-3.4-6.2-6-8.3-9.7c-1.3-2.4-1.9-5-2.5-7.7c-1.5-6.7-3-13.5-3.7-20.3l40.1-6.8
			C427.8,813,419,828.4,407.5,841z M433.7,792.7l-41.2,7c-0.1-1.4-0.2-2.8-0.2-4.2c-0.1-8.1,1.4-16.1,3.2-24l41.7-1.7
			C436.8,777.8,435.6,785.4,433.7,792.7z M398.4,760.2c0.3-1.3,0.7-2.7,1-4c0.6-2.4,1.2-4.8,1.7-7.3l34.5-5.3
			c1,5.2,1.6,10.4,1.8,15.9L398.4,760.2z M428.2,682.3l1.8-2l22.8,25.7h10.7c1.6,10.2,3.3,20.4,4.8,29.5l-14.1,2.2
			C450.1,716.8,441,697.8,428.2,682.3z M468.9,738.5c0.1,0.5,0.2,1,0.3,1.6c-4.1,5.2-6.7,11.8-6.9,19l-5.7,0.1
			c-0.2-6.3-0.8-12.5-1.9-18.5L468.9,738.5z M454.1,789.3c1.3-6.5,2.1-13.2,2.4-20.1l7.1-0.3c2,6.8,6.2,12.6,11.8,16.7L454.1,789.3z
			 M475.6,643.8c-1.9,1.9-3.6,3.8-4.7,6.2l-2.3-11.1l25.6-6.1c-0.3,0.1-0.6,0.3-0.9,0.4c-2.2,1-4.4,2.1-6.7,3.2
			C482.6,638.2,478.8,640.6,475.6,643.8z M491.5,728c-1.4,0.1-2.9,0.3-4.2,0.7l-5.7-27.7c2.5,0.7,4.8,1.9,7.3,2.5
			c2,0.5,4,1.2,5.9,1.8L491.5,728z M506.2,730.2c-2.1-0.8-4.3-1.5-6.6-1.9l3.1-21.3c2,0.4,4,0.7,6,1c4.7,0.7,9.3,0.7,14,0.7
			c0.2,0,0.4,0,0.6,0L506.2,730.2z M518.5,605.7c-1.5,2.1-3,4.1-4.5,6.2l-53.3,14.9c0.9-0.9,1-2.1,0.7-3.6c0-0.1-0.3-0.9-0.3-1
			c-0.2-0.5-0.3-1-0.5-1.5c-0.4-1.2-0.7-2.4-1-3.7c-0.4-1.2-0.7-2.7-0.8-4c-0.1-1.1-0.3-2.1-0.5-3.2c-0.1-1.2,0.2-2.5,0-3.7
			c-0.2-1.3-0.5-2.2-0.5-3.5c0-6.2,0-12.3,0-18.5c0-2.2-0.2-4,1-5.9c0.6-0.9,1.1-1.9,1.7-2.8c1-1.4,2-2.5,2.7-4.1
			c0.9-1.8,1.8-3.6,2.7-5.4c1-2,2.2-3.9,3.2-5.9c0.1-0.3,0.3-0.5,0.4-0.8c1.8,0.6,3.5,1.5,5.1,2.8c1.8,1.5,3.9,2.5,5.9,3.7
			c2.5,1.6,4.4,3.9,6.9,5.6c2.4,1.7,4.8,3.6,7.4,5c2.1,1.1,4.2,2.1,6.4,2.9c1.8,0.8,3.5,1.8,5.2,2.9c1.9,1.1,2.9,1.3,4.5-0.2
			c1.1-1,2.1-2,3.3-2.9c1.4-1,2.7-2.1,3.9-3.4c1.5-1.9,3.1-3.7,4.8-5.4c1.6-1.6,3.2-3.2,5-4.6c0.5-0.4,0.7-0.7,1.3-0.8
			c1-0.2,2.1,0.1,3.1,0c3.2-0.3,6.3-1.2,9.5-1.8c3-0.6,6-1.1,9-1.7c3.4-0.6,6.9-1.6,10.3-1.9c0,0.4-2.9,1.8-3.2,2
			c-2,1.1-4,2.1-5.9,3.4c-4.9,3.3-9.7,7.8-13,12.6c-1.9,2.8-4.2,5.2-6.2,8c-1.5,2.1-3,4.3-4.4,6.4c-1.6,2.5-2.9,5-4.8,7.3
			C521.8,601.3,520.1,603.4,518.5,605.7z M546.4,679.8c-0.2,0-0.3-0.1-0.5-0.1c-0.8-0.2-1.2,0.1-2-0.4c-0.5-0.3-0.9-0.8-1.3-1.3
			c-1-1-1.9-1.7-2.7-2.8c-2.1-3.2-3.6-6.7-6-9.7c-0.6-0.8-1.5-1.3-2.1-2.2c-0.6-0.9-0.8-1.7-1.6-2.6c-1-1.1-2.3-1.5-3.5-2.2
			c-1-0.5-2.6-0.8-3-1.9c-0.3-1.1-0.1-2.5-0.1-3.6c0-1.4,0-2.8,0.4-4.1c0.3-1.1,1-2.2,1.4-3.3c0.4-1.1,0.9-2.1,1.3-3.2
			c0.2-0.6,2.9-3.2,1.3-3.4c1.2-2,3-3.6,4.5-5.4c1.1-1.3,2.5-2.8,3.7-3.9c3.1-2.8,6.7-4.9,10-7.4c1.8-1.3,3.5-2.7,5.4-3.7
			c1.3-0.7,2.6-1.2,3.9-1.9c1.7-1,3.3-2.1,5-3.2l52.4-17.2L546.4,679.8z M645,660.2l18.5,68.1l-6.3-3.6l-16-63.3
			C642.5,661,643.7,660.6,645,660.2z M648.1,600.8c-6,3.5-12,4.9-18.2,4.9l-0.8-2.9c3.3-0.5,6.5-1.5,9.5-2.8
			c5.3-0.9,10.5-2.3,15.5-4.9c1.4-0.8,2.8-1.6,4.2-2.5C655.3,595.8,651.9,598.6,648.1,600.8z M674.2,538.1c7,10,4.2,24.9-1.7,35.6
			c3.9-11.9,3.8-25.2-2.1-35.7C671.6,538.2,672.9,538.3,674.2,538.1z M656.7,532.4c1-0.3,1.7-0.5,2.8-0.8c2.4,2,4.8,3.9,7.6,5.2
			c7.9,13.6,6.8,30.7-1.1,44.9c-0.5,0.8-0.9,1.6-1.4,2.4c-4.1,4.1-8.9,7.5-14.1,9.8c-1.5,0.7-3.1,1.2-4.6,1.7
			c0.8-0.6,1.6-1.2,2.4-1.9c7-6.2,13.5-15.8,16.4-24.7c2.9-9.3,0.2-19.2-5.1-27.1c-2.1-3.1-4.8-6.1-8-8.1
			C653.3,533.4,655,532.9,656.7,532.4z M648.7,534.7c4.9,2.5,8.6,7.4,11.1,12.4c4.2,8.5,4.6,17.4,0.3,25.9
			c-5.6,10.9-13.4,20.2-24.1,24.6c-2.5,0.3-5,0.6-7.4,0.8c0.4-1.6,0.7-3.1,0.9-4.4c1.5-6.8,2.8-13.7,3.7-20.7
			c1.5-11.3,2.3-22.8,2-34.3C639.7,537.6,644.2,536.1,648.7,534.7z M617.9,562.1c0.3-0.5,0.6-1,1-1.5c0.7-1,1.9-1.6,2.7-2.5
			c1.5-1.6,2.9-4.1,3.7-6.2c0.3-0.7,0.5-1.4,0.7-2c0.5,0.9,1.1,2,2.1,1.3c0.7-0.5,0.7-1.9,0.8-2.6c0.2-1.3,0.5-2.3,0.5-3.6
			c0-1.2,0-2.4,0-3.6c0,0,0,0,0,0c1.4-0.5,2.8-1,4.2-1.5c-0.3,10.5-0.9,21-2.3,31.4c-0.9,6.3-2,12.7-3.4,18.9
			c-0.4,1.6-0.7,3.2-1.1,4.7L617.9,562.1z M745.5,744c-1.8,48-39.9,86.9-85,86.9S580.2,792,582,744c1.3-34.4,21.2-64.1,49-78.2
			l18.9,64.8c0,0-4.1,8.6,14.5,13.2c18.6,4.5,22.2-1.8,20-9.5c-2.3-7.7-8.2-4.5-8.2-4.5l-16.4-72.3c2.4-0.2,4.8-0.4,7.2-0.4
			C712.2,657,747.3,696,745.5,744z"/>
		<path id="XMLID_2_" class="st36" d="M761.4,873.8c-3.1,0.5-6.3,1-9.5,1.4l2.5,4.2l-8.5,1.4l-5.4,1.6l0.8,2.2
			c4.9-0.8,10.4-1.3,15.2-1.5c8.2-0.4,16,0,22.4,0.8c2.5,0.1,4.9,0.3,7.1,0.6c8.5,1,17.5,3.7,14.3,6.7c0.2,0,0.3,0,0.5,0
			c0.1,0.2,1,0.3,1.8,0.2c0.8-0.1,1.6-0.2,2.3-0.4c2.3-0.5,4.5-1.1,6.4-1.7c0.4-0.1,0.9-0.3,0.9-0.5c0.1-0.1-0.2-0.2-0.2-0.4
			c-0.1-0.3,1-0.7,2.2-0.8c1.2-0.1,2.5,0,2.8,0.3c0.3,0.2,0.1,0.4-0.2,0.7c-0.8,0.6-2.6,1.1-4.3,1.6c-4,1.1-8,2.2-12.1,3.2
			c2.5-0.3,4.9-0.6,7.4-0.9c1.1-0.1,2.3-0.3,3.5-0.3c2-0.1,3.7,0.3,3.9,0.8c0.1,0.5-1.3,1.1-3.3,1.4c-9,1.4-18.3,1.6-27.5,2.7
			c0.3,0.2,1.3,0.6,1.2,0.8c-0.1,0.2-0.6,0.5-1.5,0.7c-0.6,0.1-1.3,0.1-2,0.2c-1.8,0.1-3.6,0.2-5.4,0.2c-0.3-0.2-0.5-0.5-0.8-0.7
			c-4,0.4-8.1,0.8-12.2,1.1c0,0.1-0.1,0.2-0.6,0.4c1,0.6-1.8,1.3-2.1,1.9c-0.2,0.3,0.2,0.6-0.2,1c-0.2,0.2-0.6,0.3-1.1,0.5
			c-0.6,0.2-0.8,0.5-1.6,0.7c-1.7,0.5-3.3,1-5.2,1.4c-2.1,0.5-3.9,1.1-5.5,1.7c-1.3,0.5-3.2,0.9-4.1,1.5c-1.1,0.6-2,1.3-3,2
			c-0.9,0.6-1.4,1.3-2,1.9c-0.4,0.4-0.4,0.8-0.8,1.2c-0.4,0.3-0.7,0.7-0.8,1c-0.7,1.5-2.5,3.1-3.8,4.6c-0.4,0.5-0.6,1-0.9,1.6
			c-0.3,0.5-0.8,1-1.1,1.4c-0.2,0.3-0.4,0.7-0.6,1c-0.2,0.3-0.6,0.6-0.7,0.8c-0.3,0.5-0.8,1-1.5,1.5c-0.6,0.4-1.3,0.8-1.9,1.2
			c-0.7,0.5-1.6,1-1.8,1.5c-0.1,0.4-0.4,0.9-0.3,1.3c0.2,0.5-0.5,1.1-0.5,1.6c0,0.7-0.1,1.5-0.3,2.3c-0.2,0.7-0.1,1.3,0,1.9
			c0,0.1-0.1,0.2,0,0.3c0.1,0.1,0.4,0.2,0.5,0.3c0.1,0.1-0.1,0.2,0,0.3c0,0.2,0.4,0.3,0.4,0.5c0.1,0.3,0.3,0.4,0.7,0.7
			c0.3,0.2,0.2,0.4,0.6,0.6c0.8,0.4,1,0.9,1.8,1.3c0.8,0.5,1.2,1,2.1,1.5c0.7,0.4,1.6,0.8,1.8,1.3c0.1,0.2,0.4,0.3,0.7,0.4
			c-0.1,0.1-0.2,0.2-0.4,0.3c0,0,0,0,0,0c1,0.7,2.2,2.1,1.9,3c1.7,0.3,3.7,0.6,5.9,0.8c2,0.2,8,0.5,10.2,0.2
			c2.1-0.5,3.9-1.6,5.7-2.2c1.8-0.7,4.5-1.9,7.1-2.4c2.4,0,6.2-0.1,8.8-0.4l5.5,0.9c0.1,0.7,2.6,4.1,3.6,4.9
			c-0.7,0.2-2.4,0.4-3.3,0.6c-2.8-0.4-6.7-1.5-10.2-0.1c0,0.4,0.4,0.5,1.2,0.9c2.5,0.2,5.1-0.4,5.2,0.6c0.1,0.9-3.3,1.9-2.1,2.6
			c0.7,0.4,2.6,0.4,3.3,0.8c0.5,0.3,0,0.9,0.5,1.2c0.5,0.4,1.2,0.4,2.1,0.6c0.5,0.1,1.9,0.3,2.1,0.3c4.4-0.6,18.4-4.5,20.9-2.2
			c-4.1,1.2-7.2,2.6-11.9,3.8c4,0.5,4,0.6,1.3,1.9c-1.4,0.7-2.1,1.3-3.6,2c-1.5,0.7-3.5,1.4-4.4,2.1c-1.1,0.8-1.4,1.1-4.6,1.6
			c-2.7,0.4-4.5,0.3-5.2-0.4c-0.1-0.1-0.3-0.2-0.6-0.3c-4.1,1.1-7.9,2.2-12.8,3.1c-8.1,1.5-16.7,2.8-25.5,3.3
			c-9.1,0.5-18.6,0.3-25.2-0.8c-4-0.7-9.2-1.9-9.6-3.3c-1.5,0-2.4-0.1-3.9-0.1c0.5-0.9-0.8-3.1,4.5-3.5c0.1-0.6,0.6-1.6,1.4-2.2
			c0.7-0.6,2.5-1,3.6-1.5c2.4-1.1,0.3-1.8,0-2.9c-0.4,0-0.8,0.1-1.2,0.1c-0.7,0-1.1-0.1-1.8-0.1c-1.1,0-2.5,0-3.7,0.1
			c-1.7,0.1-3.3,0.1-4.9,0.1c-2.3,0-4.6-0.1-6.9,0c-1.3,0-2.5,0.1-3.8,0.1c-1.5,0-2.4,0-3.7-0.1c-1.4-0.1-3,0-4.5,0
			c-1.5,0-2.8-0.1-4.2-0.1c-1.1,0-2.3,0-3.4,0c-1.7,0-3.4,0-5.1,0c-5.8,0.1-11.1-0.4-16.3-0.7c-1.3-0.1-2.5-0.2-3.7-0.3
			c-1.5-0.2-3.1-0.1-4.7-0.2c-1.5-0.1-3.1-0.3-4.4-0.5c-1.6-0.3-3.3-0.4-5.2-0.5c-1.4-0.1-2.4-0.3-3.7-0.4c-1.5-0.1-2.7-0.4-4-0.6
			c-0.7-0.1-1.3-0.1-1.8-0.3c-0.7-0.2-1.1-0.4-2-0.5c-1.1-0.2-2.3-0.4-3.2-0.7c-4-1.1-7.1-2.5-11.6-3.5c-1.1-0.3-2.4-0.5-3.6-0.7
			c-0.7-0.1-1-0.3-1.7-0.5c-0.6-0.1-1.2-0.2-1.9-0.2c-1.3-0.2-2.3-0.4-3.4-0.6c-1.7-0.3-3.8-0.5-5.4-0.9c-0.8-0.2-1.4-0.4-2.4-0.6
			c-1.2-0.2-2.4-0.3-3.7-0.5c-0.6-0.1-1.1-0.2-1.6-0.3c-1.1-0.2-2.3-0.4-3.4-0.6c-0.8-0.1-1.5-0.3-2.2-0.5c-1.2-0.3-1.8-0.6-2.7-1
			c-1.1-0.5-2.4-0.9-3.2-1.4c-0.4-0.3-1.9-0.5-1.6-0.8c0,0,0,0,0.1,0c-0.6-0.1-1.3-0.2-1.9-0.3c-1.6-0.2-2.8-0.6-4.3-0.8
			c-0.6-0.1-1.3-0.2-1.9-0.3c-0.6-0.2-1.3-0.3-2-0.5c-0.9-0.2-1.9-0.3-2.7-0.5c-0.4-0.1-0.8-0.2-1-0.3c-0.2-0.1-0.3-0.2-0.6-0.3
			c-0.1,0-0.9-0.1-1-0.1c-1.3-0.6-2.6-1.3-3.4-2c-0.7-0.6-1.1-1.3-1.5-1.9c-0.3-0.5-0.2-1-0.3-1.5c-0.1-0.6-0.3-1.2-0.4-1.8
			c-0.1-0.5-0.2-0.9-0.6-1.3c-0.4-0.5-0.9-0.9-2.5-1.2c-2.6-0.5-5.6-0.9-7.4-1.6c-0.8-0.3-1.3-0.6-1.3-1c0-0.3-0.2-0.5-0.8-0.7
			c-1.2-0.4-2.2-0.9-3.6-1.3c-2-0.5-2.8-1.2-4-1.8c-1.1-0.6-1.2-1.3-1.6-2.1c-0.2-0.3-0.7-0.6-1-0.9c0,0-0.3-0.3-0.2-0.4
			c0.1-0.1,0.5-0.2,0.6-0.2c0.6-0.3,0.6-0.5,0.9-0.8c0.3-0.2,0.8-0.4,1.2-0.7c0.8-0.5,1.2-0.9,2.4-1.4c0.9-0.4,1.8-0.7,2.9-1
			c-0.3-0.1-0.6-0.2-0.9-0.3c-8.9,2.7-19.4,5.1-31.4,7.1c-54.7,9.3-118.4,6.8-142.4-5.5c-23.9-12.3,1-29.8,55.6-39.1
			c22.2-3.8,45.9-5.6,67.8-5.6c1.9-0.3,3.8-0.7,5.7-1c6.6-1.2,13.5-2.4,20.7-2.9c1-0.1,2-0.1,2.6,0c0.5,0.1,0.4,0.3,0.3,0.5
			c-1,1.4-5.4,2.6-9.4,3.9c17.7,0.9,33.3,3.2,44.7,6.7l22.3-2.8c2.9-1.1,6.7-2,11.2-2.8c14.4-2.4,30.5-1.9,36,1.3
			c2,1.2,2.3,2.5,1.2,3.9l35,2.7c2.6-0.3,5.1-0.6,7.7-0.9c2.3-0.3,5-0.6,7.3-0.6c0.7,0,1.5-0.1,2.1-0.1c0.9,0,1,0.2,1.3,0.4
			c0.6,0.4,1,0.7,1.2,1.2c0.1,0.4-0.7,1.1-1.4,1.5l66.5,5.1l-0.9-1.3l-2.5-0.6l-2.8-5.1c-32.4,1.7-63-1.4-77-8.6
			c-19.4-10,0.4-24.1,44.1-31.5c43.7-7.4,94.9-5.4,114.3,4.6C824.9,852.2,805.1,866.3,761.4,873.8z M512.9,908.3
			c-4.4-1-9.1-2-13-3.1c-2.6-0.8-4.8-1.7-6.7-2.6l-16.8-0.5c-3,0.2-5.9,0.1-8.4-0.1c-3.3-0.3-6.1-0.7-9.5-0.9c-0.5,0-1.1-0.1-1.7,0
			c-0.8,0.1-1.4,0.3-1.8,0.5c-1.2,0.6-2.2,1.2-3.8,1.7s-4,1-6.2,1c-2.7,0-4.1-0.7-4.6-1.3c-0.6-0.6-0.8-1.4-2.5-1.8
			c-0.2,0-0.4,0-0.6,0.1l-9.9,1.3l-0.8-0.3c-2.5,0.2-5.1,0.3-7.6,0.3c-6.1,0.1-12-0.5-14-1.8c-1.5-1-0.7-2.3-2.3-3.3
			c-1-0.6-2.7-1-3-1.7c-0.4-0.8,1.6-1.7,4.4-2.4l-0.9-0.3l57.1-7.1c-1.8-0.9-3.5-1.8-5.2-2.7c-4.3-2.2-8.4-4.5-12.5-6.8
			c-0.5-0.3-1.1-0.7-0.5-1c0.5-0.4,1.9-0.7,3.2-0.9c0.5-0.1,1-0.2,1.6-0.3c-10.9,0.8-21.8,2-32.4,3.8c-46,7.8-67,22.6-46.8,32.9
			c20.2,10.4,73.8,12.4,119.8,4.6c10.9-1.9,20.4-4.1,28.3-6.6C514.8,908.8,513.9,908.6,512.9,908.3z M417.6,893.2
			c2.1,0.5,6.7-0.2,9.9-0.6s6.3-1,9.6-1.4c6.4-0.6,12.8,0.2,13.7,1.7c4.5,0.2,9,0.3,13.5,0.5l8-1.3c-3.3-1.7-6.6-3.4-10-5.1
			c-0.3-0.2-0.7-0.3-1-0.5l-45.4,5.6C417.4,892.3,418.2,892.7,417.6,893.2z M471.6,895c0.2,0.3,0.5,0.5,0.9,0.8l-0.1-0.4l3.8,0.2
			l2.3-0.3c-0.7-0.4-1.4-0.7-2.1-1.1L471.6,895z M728.6,893.5c1.2,0,2.2,0.1,3.4,0.2c0.2,0,0.3,0,0.5,0l-0.6-1.2l-9.2,0.8
			C724.6,893.4,726.5,893.5,728.6,893.5z M700.5,923.4c0.7-0.6,2-1.4,3.3-2c0.5-0.2,0.9-0.4,1.2-0.7c0.2-0.2,0.6-0.3,0.9-0.4
			c0.4-0.2,0.5-0.4,0.8-0.6c0.3-0.2,0.7-0.4,1.1-0.6c1.1-0.6,2-1.3,3.5-1.9c0.8-0.3,1.2-0.6,1.6-0.9c0.3-0.3,1-0.5,1.4-0.8
			c0.7-0.5,1.2-1,2.4-1.5c0.5-0.2,0.6-0.2,0.8-0.4c0.1-0.1,0.3-0.3,0.6-0.4c0.5-0.3,1-0.5,1.6-0.8c0.6-0.3,1.4-0.6,1.9-0.9
			c0.3-0.2,0.6-0.4,0.9-0.5c-0.4,0.1-0.7,0.2-1.1,0.3c-2.1,0.6-4.8,1.2-7.2,1.8c-2,0.5-4,0.9-6.1,1.4c-1.8,0.4-3.6,0.8-5.5,1.2
			c-1.5,0.3-3,0.7-4.6,1c-1.7,0.3-3.1,0.7-4.7,1c-1.6,0.3-3.3,0.5-4.8,0.9c-3.2,0.7-6.8,1.3-10.3,1.9c-2.4,0.4-4.5,0.9-6.6,1.3
			c-0.6,0.1-0.9,0.3-1.5,0.4c-0.6,0.1-1,0.2-1.5,0.3c-0.4,0.1-0.8,0.2-1.2,0.2c-0.4,0.1-0.7,0.2-1.2,0.3c-0.5,0.1-0.7,0.2-1.1,0.3
			c-0.4,0.1-0.9,0.2-1.4,0.3c-0.1,0-0.2,0.1-0.4,0.1c-0.1,0.1-0.1,0.2,0,0.3c0.3,0.4,2.2,0.4,3.4,0.5c0.9,0.1,1.7,0.1,2.2,0.3
			c0.6,0.2,1.4,0.3,2.1,0.5c0.6,0.1,1.3,0.2,1.9,0.4c0.8,0.2,1.5,0.4,2.4,0.6c0.9,0.2,2,0.3,3,0.5c0.8,0.1,1.3,0.4,2.3,0.4
			c2,0.2,3.7,0.4,5.5,0.6c1.2,0.2,2.6,0.3,4,0.4c0.8,0.1,1.6,0.2,2.4,0.2c0.7,0.1,2,0.1,2.3,0.3c0-0.3,0.6-0.8,1-1.1
			c0.3-0.3,0.2-0.5,0.4-0.7c0.1-0.2,0.4-0.4,0.6-0.6c0.4-0.5,0.9-0.9,1.6-1.4c0.4-0.3,0.4-0.6,0.8-0.8
			C699.7,923.8,700.3,923.6,700.5,923.4z M585.4,901.6c-1.5-1.6-3.5-3.7-5.7-6c-1.8-0.3-3.6-0.7-4.6-1.2l-6.9,5.5L585.4,901.6z
			 M521.6,894.8c3,1.1,5.4,2.3,8.2,3.4l7.7,0.4c4.2-3.6,5.5-7.2,3.3-10.7l-28.7,3.7C515.5,892.7,518.6,893.7,521.6,894.8z
			 M487.4,873.7c0,0-0.1,0.1-0.1,0.1c-1,1-3.2,1.9-3.8,2.9c-0.3,0.6,0,1.2,0.3,1.7c0.9,1.4,1.7,2.8,3.3,4.2l34.8-4.3
			C512.6,875.9,500.7,874.4,487.4,873.7z M523.7,878.8l-35.8,4.4c0.4,0.3,0.7,0.5,1.2,0.8c2.5,1.5,6.1,2.7,10.1,3.9l34.5-5.5
			C530.9,881,527.5,879.8,523.7,878.8z M504.9,889.5c0.7,0.2,1.4,0.4,2.1,0.6c1.2,0.4,2.4,0.7,3.6,1.1l29.7-3.8
			c-0.8-1.1-2-2.1-3.5-3.1L504.9,889.5z M553.3,899.4l2.1,0.1l10.7-7.8l8.7-1.5c-1.9-2.1-3.6-4.1-5.2-6l-12.2,1.6
			C560.6,890.2,559,894.9,553.3,899.4z M569.1,883.7c-0.1-0.1-0.2-0.2-0.3-0.3c-5-0.4-9.1-1.2-11.5-2.5l-4.7,0.8
			c1.8,1.2,3.2,2.4,4.2,3.6L569.1,883.7z M541.4,876.6c3.1,1,5.8,2.1,8.2,3.3l5.8-0.9c-0.5-1.5,1.1-3.1,4.4-4.6L541.4,876.6z
			 M603.9,899.8c-2.1-0.1-4.1-0.2-5.7-0.5l1.6,2.3l22.7-2.4c-0.3,0-0.6,0-0.9,0.1c-2.1,0.1-4.3,0.2-6.4,0.4
			C611.4,899.8,607.5,899.9,603.9,899.8z M590.8,882.4c-1.2,0.2-2.4,0.3-3.7,0.5l3.9,5.8c1.8-0.5,3.3-1,5.1-1.5
			c1.4-0.4,2.9-0.8,4.3-1.1L590.8,882.4z M602.1,880c-1.4,0.4-3,0.9-4.8,1.2l9.1,3.4c1.5-0.3,3-0.7,4.6-1c3.6-0.8,7.4-1.4,11.2-2.1
			c0.2,0,0.3,0,0.5-0.1L602.1,880z M650.6,900.7c-1.8-0.2-3.7-0.3-5.6-0.5l-48.1,4.7c1,0,1.5,0.2,1.7,0.6c0,0,0,0.2,0,0.2
			c0,0.1,0,0.2,0.1,0.3c0.1,0.3,0.2,0.5,0.3,0.8c0.1,0.3,0.2,0.6,0.6,0.8c0.3,0.2,0.4,0.4,0.6,0.6c0.3,0.2,0.9,0.4,1.2,0.7
			c0.3,0.2,0.3,0.5,0.7,0.7c1.9,1.1,3.8,2.2,5.7,3.3c0.7,0.4,1.1,0.7,2.7,0.9c0.8,0.1,1.5,0.2,2.3,0.3c1.2,0.1,2.4,0.2,3.5,0.4
			c1.3,0.2,2.6,0.4,3.9,0.6c1.4,0.2,3,0.4,4.4,0.6c0.2,0,0.4,0.1,0.6,0.1c1.2-0.4,2.4-0.8,3.3-1.2c1-0.5,2.4-1,3.6-1.5
			c1.6-0.6,2.4-1.3,3.9-2c1.4-0.6,2.8-1.3,4.5-1.9c1.4-0.5,2.8-1,4.3-1.4c1.2-0.4,2.3-0.8,3.3-1.3c1.2-0.5,2-0.6,3.7-0.6
			c1.2,0,2.3,0.1,3.6,0.1c1.4,0,2.8,0,4.2,0.1c1.8,0.1,3.7,0.2,5.6,0.3c1.8,0.1,3.6,0.1,5.5,0.1c0.5,0,0.7,0,1.4,0
			c0.9-0.1,1.7-0.3,2.5-0.4c2.7-0.4,5.5-0.6,8.3-1c2.6-0.3,5.2-0.6,7.8-0.9c2.9-0.3,6.1-0.7,9-1.1c-0.1-0.1-2.9,0.1-3.3,0.1
			c-2,0.1-3.9,0.2-5.9,0.2c-5,0.1-10.3-0.1-14.5-0.5c-2.4-0.2-5-0.4-7.5-0.6c-1.9-0.2-3.8-0.4-5.6-0.5c-2.1-0.2-3.9-0.5-6.1-0.7
			C654.7,901.1,652.6,900.9,650.6,900.7z M650.5,883.5c-0.1,0-0.2,0.1-0.4,0.1c-0.6,0.1-1,0.2-1.5,0.4c-0.3,0.1-0.4,0.3-0.7,0.4
			c-0.5,0.3-1.1,0.6-1.3,0.9c-0.8,0.9-0.9,1.7-1.9,2.6c-0.3,0.2-0.8,0.4-1,0.7c-0.2,0.3-0.1,0.4-0.5,0.7c-0.5,0.3-1.4,0.6-2.2,0.9
			c-0.6,0.2-1.9,0.5-1.8,0.8c0,0.2,0.7,0.5,1.1,0.7c0.4,0.3,0.9,0.5,1.6,0.7c0.6,0.2,1.5,0.3,2.2,0.4c0.6,0.1,1.4,0.3,2.1,0.4
			c0.4,0.1,3.3,0.2,2.1,0.4c1.6,0.2,3.6,0.2,5.4,0.4c1.3,0.1,2.9,0.2,4.3,0.2c3.4,0.1,6.9,0,10.4-0.1c1.8,0,3.7,0,5.6-0.1
			c1.2-0.1,2.5-0.2,3.7-0.2c1.7-0.1,3.4-0.1,5.1-0.1l48-4.2L650.5,883.5z M736.9,873.4l-6-14.8l-4,1.5l6.5,13.6
			C734.6,873.6,735.8,873.5,736.9,873.4z M757.8,883.6c-6,0.2-11.2,0.8-16.3,1.6l0.2,0.6c2.8-0.4,5.7-0.6,8.6-0.8
			c4.6-0.6,9.3-1,14.1-1.3c1.4-0.1,2.8-0.1,4.2-0.1C765.2,883.6,761.5,883.5,757.8,883.6z M798.4,891.3c2.6-2.8-4.3-5.1-12.4-6.2
			c6.8,1.6,10.9,4,9.3,6.7C796.3,891.7,797.4,891.5,798.4,891.3z M786,894.8c0.9-0.1,1.6-0.1,2.5-0.2c1.3-0.7,2.7-1.4,4.6-2
			c2.2-3.5-4-6.5-14.7-7.9c-0.6-0.1-1.3-0.2-1.9-0.2c-4.6-0.2-9.6-0.1-14.6,0.2c-1.4,0.1-2.9,0.2-4.3,0.3c0.9,0,1.7,0,2.5,0
			c7.6,0.1,15.9,1,21,2.2c5.3,1.3,6.1,3.4,4.3,5.6c-0.7,0.8-2,1.8-4,2.6C782.9,895.1,784.4,894.9,786,894.8z M778.7,895.5
			c3.2-1.1,4.7-2.5,5.2-3.8c0.8-2.1-1.6-3.8-7.8-4.7c-7.9-1.2-17.2-1.8-27.2-1.1c-2.1,0.3-4.2,0.6-6.3,0.9c0.8,0.2,1.5,0.5,2.1,0.7
			c3.4,1,6.5,2.1,9.4,3.2c4.7,1.8,9,3.8,12.2,5.9C770.5,896.2,774.6,895.8,778.7,895.5z M745.1,894.8c0.4,0,0.8,0.1,1.3,0.1
			c0.9,0.1,2,0,3,0.1c1.8,0.1,3.7,0.3,5,0.6c0.5,0.1,0.9,0.2,1.2,0.3c0.1-0.2,0.3-0.5,1.3-0.5c0.7,0,1.2,0.2,1.5,0.4
			c0.5,0.2,1.1,0.4,1.5,0.6c0.4,0.2,0.7,0.4,1.1,0.7c0,0,0,0,0,0c1.3-0.1,2.6-0.2,3.9-0.3c-3.5-1.8-7.2-3.7-11.6-5.3
			c-2.7-1-5.6-2-8.6-2.9c-0.8-0.2-1.6-0.5-2.4-0.7L745.1,894.8z M792.9,844.4c-16.3-8.4-59.4-10.1-96.2-3.9
			c-36.8,6.3-53.4,18.1-37.1,26.5c11.7,6,37.1,8.6,64.1,7.3l-4.6-14.3c0,0-6-1,7.8-4.4c13.8-3.4,18.7-2.8,19.2-1
			c0.5,1.7-5.3,1.9-5.3,1.9l9,15.3c2-0.3,4-0.6,5.9-0.9C792.6,864.7,809.3,852.8,792.9,844.4z"/>
	</g>
</g>
</svg>
