<svg width="21" height="24" viewBox="0 0 21 24" fill="none" xmlns="http://www.w3.org/2000/svg">
<g clip-path="url(#clip0_238_1703)">
<mask id="path-1-inside-1_238_1703" fill="white">
<path d="M8.66659 7.14526C10.0229 7.85497 13.0241 9.50566 13.5981 10.4999C14.1721 11.4941 14.101 14.9186 14.0375 16.448C14.0227 16.8048 13.6499 17.02 13.3335 16.8545C11.9773 16.1448 8.97599 14.4941 8.40199 13.4999C7.82799 12.5057 7.89909 9.08112 7.96259 7.55171C7.97741 7.19492 8.35019 6.97969 8.66659 7.14526Z"/>
</mask>
<path d="M8.66659 7.14526L7.73931 8.9173L8.66659 7.14526ZM7.96259 7.55171L9.96087 7.63468L9.96087 7.63468L7.96259 7.55171ZM13.3335 16.8545L14.2608 15.0824L14.2608 15.0824L13.3335 16.8545ZM14.0375 16.448L12.0393 16.365L12.0393 16.3651L14.0375 16.448ZM15.3302 9.49986C14.9864 8.90434 14.4329 8.41922 14.0231 8.09241C13.5596 7.72278 13.0203 7.35714 12.493 7.02443C11.4345 6.3566 10.2905 5.73773 9.59388 5.37321L7.73931 8.9173C8.39897 9.2625 9.4337 9.82383 10.3585 10.4073C10.8228 10.7003 11.2261 10.9781 11.5292 11.2198C11.8859 11.5042 11.9229 11.5983 11.8661 11.4999L15.3302 9.49986ZM5.96432 7.46874C5.9317 8.25427 5.89563 9.55447 5.94477 10.805C5.96925 11.4281 6.01623 12.0779 6.10458 12.6642C6.1827 13.1825 6.32611 13.9043 6.66994 14.4999L10.134 12.4999C10.1909 12.5983 10.1279 12.5192 10.0599 12.068C10.0021 11.6848 9.96324 11.1965 9.94169 10.648C9.89875 9.55534 9.92999 8.37857 9.96087 7.63468L5.96432 7.46874ZM6.66994 14.4999C7.01377 15.0954 7.5672 15.5805 7.97701 15.9073C8.44053 16.277 8.97986 16.6426 9.50719 16.9753C10.5656 17.6431 11.7097 18.262 12.4063 18.6265L14.2608 15.0824C13.6012 14.7372 12.5664 14.1759 11.6417 13.5924C11.1774 13.2995 10.774 13.0216 10.4709 12.78C10.1142 12.4955 10.0772 12.4014 10.134 12.4999L6.66994 14.4999ZM16.0358 16.531C16.0684 15.7455 16.1045 14.4453 16.0554 13.1947C16.0309 12.5717 15.9839 11.9218 15.8956 11.3356C15.8174 10.8172 15.674 10.0954 15.3302 9.49986L11.8661 11.4999C11.8093 11.4014 11.8722 11.4805 11.9402 11.9317C11.998 12.315 12.0369 12.8032 12.0584 13.3518C12.1014 14.4444 12.0701 15.6212 12.0393 16.365L16.0358 16.531ZM12.4063 18.6265C14.0222 19.4721 15.9602 18.3532 16.0358 16.531L12.0393 16.3651C12.0853 15.2564 13.2777 14.568 14.2608 15.0824L12.4063 18.6265ZM9.59388 5.37321C7.97796 4.52762 6.03997 5.64652 5.96432 7.46874L9.96087 7.63468C9.91484 8.74332 8.72243 9.43176 7.73931 8.9173L9.59388 5.37321Z" fill="#AEAEAE" mask="url(#path-1-inside-1_238_1703)"/>
<circle cx="11" cy="12" r="9" stroke="#AEAEAE" stroke-width="2"/>
</g>
<defs>
<clipPath id="clip0_238_1703">
<rect width="21" height="24" fill="white"/>
</clipPath>
</defs>
</svg>
