<svg xmlns="http://www.w3.org/2000/svg" width="11" height="14" fill="none"><rect id="backgroundrect" width="100%" height="100%" x="0" y="0" fill="none" stroke="none"/>


<g class="currentLayer" style=""><title>Layer 1</title><path d="M1.0000638018798833,1.5000645410156253 V9.333404541015625 H9.335393801879883 C9.833493801879882,9.333404541015625 10.082493801879883,9.333404541015625 10.147493801879882,9.182004541015624 C10.212493801879884,9.030604541015625 10.040893801879882,8.850104541015625 9.697893801879882,8.489004541015625 L6.803493801879883,5.442224541015625 L6.803493801879883,5.442224541015625 C6.679593801879882,5.311794541015624 6.617593801879883,5.2465845410156255 6.617593801879883,5.1667245410156255 C6.617593801879883,5.086874541015625 6.679593801879882,5.021664541015625 6.803493801879883,4.891234541015624 L6.803493801879883,4.8912245410156245 L9.697893801879882,1.8444345410156249 C10.040893801879882,1.4833545410156255 10.212493801879884,1.3028145410156249 10.147493801879882,1.1514345410156253 C10.082493801879883,1.0000645410156253 9.833493801879882,1.0000645410156253 9.335393801879883,1.0000645410156253 H1.5000638018798824 C1.2643638018798828,1.0000645410156253 1.146513801879883,1.0000645410156253 1.0732838018798834,1.0732845410156253 C1.0000638018798833,1.1465045410156254 1.0000638018798833,1.2643545410156252 1.0000638018798833,1.5000645410156253 z" fill="#67AD5B" id="svg_1" class=""/><path d="M0.00006380187988330732,12.666704541015624 C0.00006380187988330732,13.219004541015625 0.44777380187988314,13.666704541015626 1.0000638018798833,13.666704541015626 C1.552343801879883,13.666704541015626 2.0000638018798833,13.219004541015625 2.0000638018798833,12.666704541015624 H0.00006380187988330732 zM9.697893801879882,1.8444345410156249 L8.972893801879883,1.1556845410156251 V1.1556845410156251 L9.697893801879882,1.8444345410156249 zM6.803493801879883,4.8912245410156245 L6.078493801879883,4.202474541015625 L6.060793801879884,4.221024541015625 L6.044193801879883,4.240434541015625 L6.803493801879883,4.8912245410156245 zM6.803493801879883,5.442224541015625 L5.9713938018798824,5.996924541015625 L6.019193801879883,6.0685645410156255 L6.078493801879883,6.130974541015625 L6.803493801879883,5.442224541015625 zM9.697893801879882,8.489004541015625 L8.972893801879883,9.177804541015625 L9.697893801879882,8.489004541015625 zM10.147493801879882,1.1514345410156253 L9.228593801879883,1.5459245410156246 L9.228593801879883,1.545934541015625 L10.147493801879882,1.1514345410156253 zM10.147493801879882,9.182004541015624 L9.228593801879883,8.787504541015625 L9.228593801879883,8.787504541015625 L10.147493801879882,9.182004541015624 zM6.803493801879883,4.891234541015624 L7.528493801879883,5.579984541015625 L7.546093801879882,5.561444541015625 L7.562693801879883,5.542024541015625 L6.803493801879883,4.891234541015624 zM6.803493801879883,5.442224541015625 L7.635493801879884,4.887524541015624 L7.587793801879883,4.815884541015625 L7.528493801879883,4.753474541015625 L6.803493801879883,5.442224541015625 zM2.0000638018798833,9.333404541015625 V1.5000645410156253 H0.00006380187988330732 V9.333404541015625 H2.0000638018798833 zM9.335393801879883,8.333404541015625 H1.0000638018798833 V10.333404541015625 H9.335393801879883 V8.333404541015625 zM0.00006380187988330732,9.333404541015625 V12.666704541015624 H2.0000638018798833 V9.333404541015625 H0.00006380187988330732 zM1.5000638018798824,2.0000645410156253 H9.335393801879883 V0.00006454101562525238 H1.5000638018798824 V2.0000645410156253 zM8.972893801879883,1.1556845410156251 L6.078493801879883,4.202474541015625 L7.528493801879883,5.579974541015625 L10.422893801879884,2.5331845410156255 L8.972893801879883,1.1556845410156251 zM6.078493801879883,6.130974541015625 L8.972893801879883,9.177804541015625 L10.422893801879884,7.800304541015626 L7.528493801879883,4.753474541015625 L6.078493801879883,6.130974541015625 zM9.335393801879883,2.0000645410156253 C9.463693801879883,2.0000645410156253 9.558993801879883,2.0001245410156248 9.638193801879883,2.002114541015625 C9.719793801879883,2.004154541015625 9.753993801879883,2.0077345410156253 9.762593801879882,2.0089545410156253 C9.778293801879883,2.011194541015625 9.701693801879882,2.0039545410156254 9.595793801879882,1.9479845410156251 C9.537093801879882,1.9169145410156254 9.465193801879883,1.868784541015625 9.395293801879882,1.7964245410156252 C9.323793801879884,1.7224545410156251 9.267593801879883,1.6368445410156252 9.228593801879883,1.5459245410156246 L11.066393801879883,0.756944541015625 C10.810793801879882,0.16174454101562485 10.233493801879883,0.05589454101562508 10.045093801879883,0.029004541015625218 C9.824593801879884,-0.00244545898437476 9.550693801879882,0.00006454101562525238 9.335393801879883,0.00006454101562525238 V2.0000645410156253 zM10.422893801879884,2.5331845410156255 C10.571193801879883,2.3770745410156255 10.761693801879883,2.1802345410156247 10.890693801879882,1.9987445410156255 C11.000993801879883,1.843584541015625 11.321893801879883,1.3521345410156247 11.066393801879883,0.756944541015625 L9.228593801879883,1.545934541015625 C9.189493801879882,1.4550145410156254 9.166193801879883,1.3553045410156255 9.161793801879883,1.2525445410156246 C9.157493801879882,1.1519845410156249 9.172093801879884,1.0667545410156247 9.189993801879883,1.002744541015625 C9.222393801879884,0.887434541015625 9.269893801879883,0.8269445410156249 9.260693801879883,0.8398445410156254 C9.255693801879882,0.8469045410156246 9.234693801879883,0.8741845410156248 9.179993801879883,0.9347345410156249 C9.126793801879883,0.9935745410156249 9.061293801879883,1.0626445410156249 8.972893801879883,1.1556845410156251 L10.422893801879884,2.5331845410156255 zM9.335393801879883,10.333404541015625 C9.550693801879882,10.333404541015625 9.824593801879884,10.335904541015625 10.045093801879883,10.304404541015625 C10.233493801879883,10.277604541015625 10.810793801879882,10.171704541015625 11.066393801879883,9.576504541015625 L9.228593801879883,8.787504541015625 C9.267593801879883,8.696604541015626 9.323793801879884,8.611004541015625 9.395293801879882,8.537004541015625 C9.465193801879883,8.464704541015625 9.537093801879882,8.416504541015625 9.595793801879882,8.385504541015624 C9.701693801879882,8.329504541015625 9.778293801879883,8.322304541015624 9.762593801879882,8.324504541015624 C9.753993801879883,8.325704541015625 9.719793801879883,8.329304541015626 9.638193801879883,8.331304541015625 C9.558993801879883,8.333304541015625 9.463693801879883,8.333404541015625 9.335393801879883,8.333404541015625 V10.333404541015625 zM8.972893801879883,9.177804541015625 C9.061293801879883,9.270804541015625 9.126793801879883,9.339904541015624 9.179993801879883,9.398704541015626 C9.234693801879883,9.459304541015625 9.255693801879882,9.486604541015625 9.260693801879883,9.493604541015625 C9.269893801879883,9.506504541015625 9.222393801879884,9.446004541015625 9.189993801879883,9.330704541015624 C9.172093801879884,9.266704541015626 9.157493801879882,9.181504541015626 9.161793801879883,9.080904541015625 C9.166193801879883,8.978104541015625 9.189493801879882,8.878404541015625 9.228593801879883,8.787504541015625 L11.066393801879883,9.576504541015625 C11.321893801879883,8.981304541015625 11.000993801879883,8.489904541015624 10.890693801879882,8.334704541015626 C10.761693801879883,8.153204541015626 10.571193801879883,7.956404541015624 10.422893801879884,7.800304541015626 L8.972893801879883,9.177804541015625 zM6.044193801879883,4.240434541015625 L6.044193801879883,4.240444541015625 L7.562693801879883,5.542024541015625 L7.562693801879883,5.542014541015625 L6.044193801879883,4.240434541015625 zM6.078493801879883,4.202484541015625 C6.0353938018798825,4.247764541015625 5.933993801879883,4.351544541015625 5.855393801879883,4.459734541015625 C5.759693801879882,4.5912745410156255 5.617593801879883,4.832684541015625 5.617593801879883,5.1667245410156255 H7.617593801879883 C7.617593801879883,5.283614541015625 7.593493801879882,5.390154541015626 7.557793801879884,5.479374541015625 C7.525093801879883,5.5612245410156245 7.487993801879883,5.615234541015624 7.472793801879883,5.636154541015625 C7.4579938018798835,5.656444541015626 7.450493801879883,5.6635345410156255 7.463993801879884,5.648624541015625 C7.477193801879883,5.634014541015626 7.4949938018798825,5.615234541015624 7.528493801879883,5.579984541015625 L6.078493801879883,4.202484541015625 zM7.635493801879884,4.887524541015624 L7.635493801879884,4.887524541015624 L5.9713938018798824,5.996924541015625 L5.9713938018798824,5.996924541015625 L7.635493801879884,4.887524541015624 zM7.528493801879883,4.753474541015625 C7.4949938018798825,4.718224541015625 7.477193801879883,4.699434541015625 7.463993801879884,4.684824541015625 C7.450493801879883,4.669914541015625 7.4579938018798835,4.677014541015625 7.472793801879883,4.697304541015625 C7.487993801879883,4.718224541015625 7.525093801879883,4.772224541015625 7.557793801879884,4.854074541015626 C7.593493801879882,4.943304541015625 7.617593801879883,5.049834541015626 7.617593801879883,5.1667245410156255 H5.617593801879883 C5.617593801879883,5.500774541015625 5.759693801879882,5.742184541015625 5.855393801879883,5.8737245410156245 C5.933993801879883,5.981914541015625 6.0353938018798825,6.085694541015625 6.078493801879883,6.130974541015625 L7.528493801879883,4.753474541015625 zM2.0000638018798833,1.5000645410156253 C2.0000638018798833,1.4374145410156247 2.000123801879883,1.3995945410156247 2.000893801879883,1.369464541015625 C2.001663801879883,1.3388345410156246 2.0027338018798826,1.3408745410156246 2.0002938018798826,1.3589945410156252 C1.997773801879883,1.3777545410156247 1.9884238018798825,1.4387645410156251 1.9557438018798825,1.518184541015625 C1.9197838018798832,1.6055845410156246 1.8627038018798832,1.698084541015625 1.7803938018798826,1.7803945410156254 L0.36618380187988286,0.3661745410156252 C0.11280380187988293,0.6195545410156251 0.04219380187988264,0.913524541015625 0.018133801879883116,1.0924945410156246 C-0.0020561981201172586,1.2426945410156254 0.00006380187988330732,1.4104845410156255 0.00006380187988330732,1.5000645410156253 H2.0000638018798833 zM1.5000638018798824,0.00006454101562525238 C1.4104838018798826,0.00006454101562525238 1.2426938018798825,-0.002065458984374935 1.0924938018798827,0.01813454101562506 C0.9135338018798826,0.04219454101562503 0.6195638018798828,0.11279454101562525 0.36618380187988286,0.3661745410156252 L1.7803938018798826,1.7803945410156254 C1.698083801879883,1.8626945410156246 1.6055838018798827,1.9197845410156251 1.518183801879883,1.9557445410156253 C1.4387738018798828,1.9884145410156249 1.3777538018798827,1.997774541015625 1.3589938018798833,2.0002945410156254 C1.3408738018798827,2.0027345410156254 1.3388338018798827,2.001664541015625 1.369463801879883,2.0008845410156253 C1.3995938018798828,2.0001245410156248 1.4374238018798824,2.0000645410156253 1.5000638018798824,2.0000645410156253 V0.00006454101562525238 z" fill="black" id="svg_2" class=""/></g></svg>