<svg width="11" height="14" xmlns="http://www.w3.org/2000/svg">

 <g class="currentLayer">
  <title>Layer 1</title>
  <path id="svg_1" fill="#000000" d="m0.85657,1.433834l0,7.83334l8.33533,0c0.4981,0 0.7471,0 0.8121,-0.1514c0.065,-0.1514 -0.1066,-0.3319 -0.4496,-0.693l-2.8944,-3.04678l0,0c-0.1239,-0.13043 -0.1859,-0.19564 -0.1859,-0.2755c0,-0.07985 0.062,-0.14506 0.1859,-0.27549l0,-0.00001l2.8944,-3.04679c0.343,-0.36108 0.5146,-0.54162 0.4496,-0.693c-0.065,-0.15137 -0.314,-0.15137 -0.8121,-0.15137l-7.83533,0c-0.2357,0 -0.35355,0 -0.42678,0.07322c-0.07322,0.07322 -0.07322,0.19107 -0.07322,0.42678z"/>
  <path id="svg_2" fill="black" d="m0.00006,12.6667c0,0.5523 0.44771,1 1,1c0.55228,0 1,-0.4477 1,-1l-2,0zm9.69783,-10.82227l-0.725,-0.68875l0,0l0.725,0.68875zm-2.8944,3.04679l-0.725,-0.68875l-0.0177,0.01855l-0.0166,0.01941l0.7593,0.65079zm0,0.551l-0.8321,0.5547l0.0478,0.07164l0.0593,0.06241l0.725,-0.68875zm2.8944,3.04678l-0.725,0.6888l0.725,-0.6888zm0.4496,-7.33757l-0.9189,0.39449l0,0.00001l0.9189,-0.3945zm0,8.03057l-0.9189,-0.3945l0,0l0.9189,0.3945zm-3.344,-4.29077l0.725,0.68875l0.0176,-0.01854l0.0166,-0.01942l-0.7592,-0.65079zm0,0.55099l0.832,-0.5547l-0.0477,-0.07164l-0.0593,-0.06241l-0.725,0.68875zm-4.80343,3.89118l0,-7.83334l-2,0l0,7.83334l2,0zm7.33533,-1l-8.33533,0l0,2l8.33533,0l0,-2zm-9.33533,1l0,3.3333l2,0l0,-3.3333l-2,0zm1.5,-7.33334l7.83533,0l0,-2l-7.83533,0l0,2zm7.47283,-0.84438l-2.8944,3.04679l1.45,1.3775l2.8944,-3.04679l-1.45,-1.3775zm-2.8944,4.97529l2.8944,3.04683l1.45,-1.3775l-2.8944,-3.04683l-1.45,1.3775zm3.2569,-4.13091c0.1283,0 0.2236,0.00006 0.3028,0.00205c0.0816,0.00204 0.1158,0.00562 0.1244,0.00684c0.0157,0.00224 -0.0609,-0.005 -0.1668,-0.06097c-0.0587,-0.03107 -0.1306,-0.0792 -0.2005,-0.15156c-0.0715,-0.07397 -0.1277,-0.15958 -0.1667,-0.2505l1.8378,-0.78898c-0.2556,-0.5952 -0.8329,-0.70105 -1.0213,-0.72794c-0.2205,-0.03145 -0.4944,-0.02894 -0.7097,-0.02894l0,2zm1.0875,0.53312c0.1483,-0.15611 0.3388,-0.35295 0.4678,-0.53444c0.1103,-0.15516 0.4312,-0.64661 0.1757,-1.2418l-1.8378,0.78899c-0.0391,-0.09092 -0.0624,-0.19063 -0.0668,-0.29339c-0.0043,-0.10056 0.0103,-0.18579 0.0282,-0.2498c0.0324,-0.11531 0.0799,-0.1758 0.0707,-0.1629c-0.005,0.00706 -0.026,0.03434 -0.0807,0.09489c-0.0532,0.05884 -0.1187,0.12791 -0.2071,0.22095l1.45,1.3775zm-1.0875,7.80022c0.2153,0 0.4892,0.0025 0.7097,-0.029c0.1884,-0.0268 0.7657,-0.1327 1.0213,-0.7279l-1.8378,-0.789c0.039,-0.0909 0.0952,-0.1765 0.1667,-0.2505c0.0699,-0.0723 0.1418,-0.1205 0.2005,-0.1515c0.1059,-0.056 0.1825,-0.0632 0.1668,-0.061c-0.0086,0.0012 -0.0428,0.0048 -0.1244,0.0068c-0.0792,0.002 -0.1745,0.0021 -0.3028,0.0021l0,2zm-0.3625,-1.1556c0.0884,0.093 0.1539,0.1621 0.2071,0.2209c0.0547,0.0606 0.0757,0.0879 0.0807,0.0949c0.0092,0.0129 -0.0383,-0.0476 -0.0707,-0.1629c-0.0179,-0.064 -0.0325,-0.1492 -0.0282,-0.2498c0.0044,-0.1028 0.0277,-0.2025 0.0668,-0.2934l1.8378,0.789c0.2555,-0.5952 -0.0654,-1.0866 -0.1757,-1.2418c-0.129,-0.1815 -0.3195,-0.3783 -0.4678,-0.5344l-1.45,1.3775zm-2.9287,-4.93737l0,0.00001l1.5185,1.30158l0,-0.00001l-1.5185,-1.30158zm0.0343,-0.03795c-0.0431,0.04528 -0.1445,0.14906 -0.2231,0.25725c-0.0957,0.13154 -0.2378,0.37295 -0.2378,0.70699l2,0c0,0.11689 -0.0241,0.22343 -0.0598,0.31265c-0.0327,0.08185 -0.0698,0.13586 -0.085,0.15678c-0.0148,0.02029 -0.0223,0.02738 -0.0088,0.01247c0.0132,-0.01461 0.031,-0.03339 0.0645,-0.06864l-1.45,-1.3775zm1.557,0.68504l0,0l-1.6641,1.1094l0,0l1.6641,-1.1094zm-0.107,-0.13405c-0.0335,-0.03525 -0.0513,-0.05404 -0.0645,-0.06865c-0.0135,-0.01491 -0.006,-0.00781 0.0088,0.01248c0.0152,0.02092 0.0523,0.07492 0.085,0.15677c0.0357,0.08923 0.0598,0.19576 0.0598,0.31265l-2,0c0,0.33405 0.1421,0.57546 0.2378,0.707c0.0786,0.10819 0.18,0.21197 0.2231,0.25725l1.45,-1.3775zm-5.52843,-3.25341c0,-0.06265 0.00006,-0.10047 0.00083,-0.1306c0.00077,-0.03063 0.00184,-0.02859 -0.0006,-0.01047c-0.00252,0.01876 -0.01187,0.07977 -0.04455,0.15919c-0.03596,0.0874 -0.09304,0.1799 -0.17535,0.26221l-1.41421,-1.41422c-0.25338,0.25338 -0.32399,0.54735 -0.34805,0.72632c-0.02019,0.1502 -0.01807,0.31799 -0.01807,0.40757l2,0zm-0.5,-1.5c-0.08958,0 -0.25737,-0.00213 -0.40757,0.01807c-0.17896,0.02406 -0.47293,0.09466 -0.72631,0.34804l1.41421,1.41422c-0.08231,0.0823 -0.17481,0.13939 -0.26221,0.17535c-0.07941,0.03267 -0.14043,0.04203 -0.15919,0.04455c-0.01812,0.00244 -0.02016,0.00137 0.01047,0.00059c0.03013,-0.00076 0.06796,-0.00082 0.1306,-0.00082l0,-2z"/>
 </g>
 <g>
  <title>Layer 2</title>
  <rect fill="none" y="0" x="0" height="100%" width="100%" id="backgroundrect"/>
 </g>
 <g>
  <title>background</title>
  <rect fill="none" id="canvas_background" height="402" width="582" y="-1" x="-1"/>
 </g>
</svg>