<svg width="21" height="24" viewBox="0 0 21 24" fill="none" xmlns="http://www.w3.org/2000/svg">
<g clip-path="url(#clip0_238_706)">
<path d="M7.73666 16.1317L8.18387 17.0261L7.73666 16.1317ZM8.18387 6.9739L14.6584 10.2111L13.7639 12L7.28944 8.76276L8.18387 6.9739ZM14.6584 13.7889L8.18387 17.0261L7.28944 15.2372L13.7639 12L14.6584 13.7889ZM7 8.94164V15.0584H5V8.94164H7ZM8.18387 17.0261C6.72109 17.7575 5 16.6938 5 15.0584H7C7 15.207 7.15646 15.3037 7.28944 15.2372L8.18387 17.0261ZM14.6584 10.2111C16.1325 10.9482 16.1325 13.0518 14.6584 13.7889L13.7639 12L13.7639 12L14.6584 10.2111ZM7.28944 8.76276C7.15646 8.69627 7 8.79296 7 8.94164H5C5 7.3062 6.72109 6.24251 8.18387 6.9739L7.28944 8.76276Z" fill="#AEAEAE"/>
<circle cx="10" cy="12" r="9" stroke="#AEAEAE" stroke-width="2"/>
</g>
<defs>
<clipPath id="clip0_238_706">
<rect width="21" height="24" fill="white"/>
</clipPath>
</defs>
</svg>
