<svg width="32" height="32" viewBox="0 0 32 32" fill="none" xmlns="http://www.w3.org/2000/svg">
<path d="M32 16C32 24.8366 24.8366 32 16 32C7.16344 32 0 24.8366 0 16C0 7.16344 7.16344 0 16 0C24.8366 0 32 7.16344 32 16Z" fill="white"/>
<path d="M16.8172 10.8477L20.9172 20.841C21.1439 21.3943 20.5772 21.9477 20.0306 21.701L16.4706 20.1277C16.2972 20.0543 16.1039 20.0543 15.9306 20.1277L12.3706 21.701C11.8239 21.941 11.2572 21.3943 11.4839 20.841L15.5839 10.8477C15.8039 10.2943 16.5906 10.2943 16.8172 10.8477Z" fill="#6540F5"/>
</svg>
